<svg id="Layer_2" data-name="Layer 2" xmlns="http://www.w3.org/2000/svg" viewBox="0 0 1138.6 919.81"><defs><style>@import url("https://fonts.googleapis.com/css2?family=Caveat&display=swap");.cls-1,.cls-12{font-size:40px;font-family:Caveat-Regular, Caveat;}.cls-2{letter-spacing:-0.01em;}.cls-3{letter-spacing:-0.01em;}.cls-4{letter-spacing:0em;}.cls-5{letter-spacing:0.01em;}.cls-6{letter-spacing:-0.01em;}.cls-7{letter-spacing:-0.02em;}.cls-8{letter-spacing:0em;}.cls-10,.cls-13,.cls-14,.cls-9{fill:none;}.cls-10,.cls-9{stroke:#1a1a1a;}.cls-10,.cls-13,.cls-14,.cls-15,.cls-9{stroke-miterlimit:10;}.cls-10,.cls-13,.cls-9{stroke-width:4px;}.cls-10{stroke-dasharray:12.07 12.07;}.cls-11{fill:#1a1a1a;}.cls-12{letter-spacing:0.01em;}.cls-13,.cls-14,.cls-15{stroke:#000;}.cls-14,.cls-15{stroke-width:2px;}</style></defs><text class="cls-1" transform="translate(926.26 877.72) scale(1.01 1)"><tspan class="cls-2">S</tspan><tspan x="19.04" y="0">an Diego</tspan></text><text class="cls-1" transform="translate(917.95 644.43) scale(1.01 1)">Los Angeles</text><text class="cls-1" transform="translate(479.82 729.98) scale(1.01 1)"><tspan class="cls-2">S</tspan><tspan x="19.04" y="0">anta Bar</tspan><tspan class="cls-3" x="144.76" y="0">b</tspan><tspan class="cls-4" x="161.76" y="0">ara</tspan></text><text class="cls-1" transform="translate(759.67 742.16) scale(1.01 1)">Malibu</text><text class="cls-1" transform="translate(190.04 405.69) scale(1.01 1)"><tspan class="cls-5">B</tspan><tspan x="21.2" y="0">ig Sur</tspan></text><text class="cls-1" transform="translate(45.02 48.36) scale(1.01 1)"><tspan class="cls-6">M</tspan><tspan x="28.4" y="0">uir Woods</tspan></text><text class="cls-1" transform="translate(224.54 124.84) scale(1.01 1)"><tspan class="cls-6">S</tspan><tspan x="19.04" y="0">an </tspan><tspan class="cls-7" x="64.2" y="0">F</tspan><tspan class="cls-8" x="82.04" y="0">rancisco</tspan></text><path class="cls-9" d="M1088.09,867.35a17.69,17.69,0,0,1-4.48-4"/><path class="cls-10" d="M1077,853.3c-4.13-8.19-8.48-20.89-11.17-40.33-6.41-46.31-61.77-46.43-65.93-60.14s-6.58-33.65-46.28-46.3-34.26-33.72-49.35-48.87-53.48,14.25-78.5,31.76-53.48,14.25-69.28,6.18-42.19-42.89-68.85-42.1-63.08,21.59-77.31,20-41.61,6.24-66.39,21.4-49.13-18-43.76-49.33,16.8-67.89-3.09-79.37-36.33-2.16-39.06-30-26.8-19.8-51.32-40.26S387.91,452,340.92,412.74s-57.69-43-48.3-81.26,34.19-86.66,4.23-86.07-44.36,11.62-53.55,4-25.88,4-29.61-58S202.05,87,186,81.24c-8.45-3-18.44-5.88-26-7.93"/><path class="cls-9" d="M154.17,71.77c-3.57-.93-5.81-1.48-5.81-1.48"/><ellipse class="cls-11" cx="1087.5" cy="867.09" rx="10.34" ry="7" transform="translate(-275.02 1146.46) rotate(-50.15)"/><text class="cls-12" transform="translate(525.85 577.17) scale(1.01 1)">P<tspan class="cls-8" x="18.96" y="0">ismo Beach </tspan></text><path d="M60.59,281.62a379.08,379.08,0,0,0,9.16-86.9q-.14-12.34-1.08-24.67c-.15-1.91-3.15-1.93-3,0a375.54,375.54,0,0,1-3.36,86.51q-1.91,12.19-4.61,24.26c-.43,1.88,2.47,2.68,2.89.8Z"/><path d="M86,140.08l-7.09,28.85c-.46,1.87,2.43,2.67,2.9.8l7.08-28.85c.46-1.88-2.43-2.67-2.89-.8Z"/><path d="M76.78,183c-2.18,14.11-2.37,28.39-2.34,42.64,0,12.57,0,25.31,2.71,37.65a64.52,64.52,0,0,0,7.49,19.41,1.5,1.5,0,0,0,2.59-1.52c-6.28-10.47-8.52-22.64-9.31-34.68-.4-6.14-.45-12.28-.47-18.42,0-6.91,0-13.81.2-20.71a195.85,195.85,0,0,1,2-23.57c.29-1.89-2.6-2.7-2.89-.8Z"/><path d="M80.83,170.87c-1.9-1.71-4.72-1-6.18.94-1.78,2.3-1,5.32,0,7.79a1.5,1.5,0,1,0,2.89-.8,15.07,15.07,0,0,1-.89-3.08c0,.34,0-.05,0-.13s0-.26,0-.39,0-.26,0-.39.06-.37,0-.11a5.83,5.83,0,0,1,.18-.72c.08-.29-.15.27,0,0,0-.09.1-.18.16-.27s.19-.33.06-.11,0,0,.09-.09l.2-.19s.28-.26.09-.08.06,0,.11-.07l.23-.14s.35-.15.1-.05l.11,0,.25-.07c.32-.09-.2,0-.06,0a2.18,2.18,0,0,0,.25,0c.06,0,.36,0,.08,0s.51.17.18.05,0,0,.08.06c.31.16-.21-.19,0,0a1.5,1.5,0,0,0,2.12-2.12Z"/><path d="M76.29,179.86c0,3.5,3.4,5.44,6.48,5.89a24.26,24.26,0,0,1,5.42,1c1.63.63,3.2,1.41,5,1,2.76-.62,3.83-3.65,3.49-6.18-.43-3.21-3-5.14-5.43-6.91a22.27,22.27,0,0,1-2-1.52,12.28,12.28,0,0,0-2-1.64,4.36,4.36,0,0,0-2.91-.37,8.22,8.22,0,0,0-1.33.24s-.15-.05-.16,0l-.07,0c-.15,0-.14.12,0,.42.41-1.89-2.48-2.69-2.89-.8a2.79,2.79,0,0,0,2.13,3.3,4.8,4.8,0,0,0,2.26,0c.58-.11,1.08-.31,1.61,0a12.45,12.45,0,0,1,1.41,1.22c.56.47,1.16.92,1.75,1.35a23.48,23.48,0,0,1,3.27,2.6c1.25,1.29,2,3.45.9,4.95a1.71,1.71,0,0,1-.51.42,2.61,2.61,0,0,1-1.82-.13,24.82,24.82,0,0,0-4.38-1.4c-1.65-.25-3.47-.19-5-.82-1.07-.43-2.23-1.27-2.23-2.52a1.5,1.5,0,0,0-3,0Z"/><path d="M64.42,171.8c-4,3.15-9.31.38-11.44-3.51-.66-1.2-2.3-4.66-1-5.84a4.65,4.65,0,0,1,2.15-.71,17.68,17.68,0,0,0,2.8-.61c2-.68,3.67-2.23,2.48-4.42-1-1.74-2.93-2.35-4.59-3.17-3.91-1.95-5.87-6.19-8.18-9.67a30.48,30.48,0,0,0-5-5.76c-2-1.78-4.52-4.18-3.38-7.11.7-1.8-2.2-2.58-2.89-.79-1.38,3.53.88,7,3.36,9.3a41.47,41.47,0,0,1,3.72,3.66A39,39,0,0,1,45,146.86a34,34,0,0,0,5.3,7.14,13.59,13.59,0,0,0,3.59,2.4c.85.38,3,1,2.92,2.14l.44-1.06c-1.6,1.78-4.8,1.08-6.78,2.38-3,2-1.76,6.23-.56,8.93A12.31,12.31,0,0,0,57,175.56a10.07,10.07,0,0,0,9.52-1.64c1.51-1.2-.62-3.31-2.12-2.12Z"/><path d="M37,126.07c-1.65-3.26-3.46-6.72-3.6-10.44-.11-2.69.8-5.73,3-7.42,1.22-.92,2.68-1.06,4.11-1.45A6.32,6.32,0,0,0,44.47,104a17.14,17.14,0,0,0,1.61-4.41c.46-1.69.86-3.41,1.31-5.11a29.13,29.13,0,0,1,3.68-9.23c1.69-2.49,4.22-4.33,5.35-7.19a11,11,0,0,0,.5-4.87c-.11-1.71-.34-3.52.7-5a4.54,4.54,0,0,1,7.2-.48c1.24,1.43,1.24,2.92,1,4.7a4.65,4.65,0,0,0,1.27,4.28A4.82,4.82,0,0,0,74.19,76H71.6c1.85,4,4.91,8.36,9.84,7.63,1.91-.29,1.1-3.18-.79-2.9-3.24.49-5.36-3.9-6.46-6.25-.52-1.12-2-.81-2.59,0s-1.68.5-2.27.11C68.17,73.81,69,72,69,70.87a7.85,7.85,0,0,0-4.78-7.25,7.59,7.59,0,0,0-8.31,1.89,7.42,7.42,0,0,0-2,4c-.28,1.87.11,3.71.05,5.58-.11,3.32-3.21,5.49-5,8a27.8,27.8,0,0,0-4.14,9.42c-.45,1.64-.84,3.28-1.26,4.92a21.23,21.23,0,0,1-1.57,4.9c-.91,1.63-2.77,1.65-4.39,2.1a9,9,0,0,0-3.76,2.12,12.05,12.05,0,0,0-3.45,9.14c.17,4.29,2.11,8.2,4,12,.88,1.72,3.47.21,2.59-1.51Z"/><path d="M80.78,86.71a29,29,0,0,1-.32,10.87c-.37,1.68-1,3.26-1.5,4.89a8.73,8.73,0,0,0-.5,3.85c.17,1.23,1,2.86,2.4,3,1.14.16,2.54-1,3.31-1.74a19.45,19.45,0,0,0,3.72-5.91c1.06-2.19,2.16-4.55,4.48-5.63,1.75-.81.23-3.4-1.51-2.59-2.74,1.27-4.25,4-5.51,6.59-1.08,2.23-2.21,5.32-4.69,6.36l1.16.15c-.94-.6-.23-2.51,0-3.32A48.58,48.58,0,0,0,83.44,98a33.14,33.14,0,0,0,.23-12.08,1.51,1.51,0,0,0-1.84-1,1.53,1.53,0,0,0-1,1.85Z"/><path d="M97.2,92.86c.64-1.92,3.66-.51,4.15.81,1.3,3.47-2.22,6.09-3.49,8.87-1.39,3,.43,5.14,2.72,6.92a4.2,4.2,0,0,1,2.06,3.27c.08,1.8-.46,3.58-.49,5.37-.06,3.81,1.61,7.3,2.55,10.9a29.71,29.71,0,0,1,.75,11.11c-.18,1.51-.34,3.61-1.25,4.9s-2.85,1.57-4,2.56c-2.14,1.76-2.51,4.55-3.17,7.06a6.38,6.38,0,0,1-2.08,3.71A11.67,11.67,0,0,1,91.14,160c-2.76.85-5.78,1.61-7.64,4-1.18,1.5.93,3.64,2.12,2.12,1.78-2.28,4.79-2.68,7.37-3.57,2.91-1,5.25-2.58,6.38-5.55,1-2.58.8-6.21,3.54-7.67,1.59-.85,3.17-1.47,4.07-3.14a15.88,15.88,0,0,0,1.39-5.43,32.68,32.68,0,0,0-.77-12.57c-1.06-4-2.85-7.71-2.29-12a12.82,12.82,0,0,0,0-5.41,7.7,7.7,0,0,0-3-3.74c-1-.81-2.44-1.67-1.81-3.18s2.16-2.92,2.94-4.56c1.53-3.18,1.72-7.8-1.91-9.64-2.66-1.34-6.25-.68-7.26,2.38-.61,1.84,2.29,2.63,2.89.8Z"/><path d="M77.54,142.2a154.43,154.43,0,0,0-6.39,20.39c-.45,1.87,2.44,2.67,2.89.79A156.27,156.27,0,0,1,80.43,143c.7-1.8-2.2-2.58-2.89-.8Z"/><path d="M70.81,161.93l.33.38c1.16,1.33,3.13-.36,2.36-1.82a112.91,112.91,0,0,0-8.13-13,1.54,1.54,0,0,0-2.05-.53,1.5,1.5,0,0,0-.54,2.05,112.91,112.91,0,0,1,8.13,13l2.36-1.82-.34-.39a1.52,1.52,0,0,0-2.12,0,1.54,1.54,0,0,0,0,2.13Z"/><path d="M68.12,131.09a7.24,7.24,0,0,0,2.24,9.41,7.32,7.32,0,0,0,4.71,1.13,10.72,10.72,0,0,0,4.7-2.08,5.76,5.76,0,0,1,2.08-1.05c1-.16,1.74.48,2.59.81a6.92,6.92,0,0,0,4.91,0,12.47,12.47,0,0,0,6.87-7.52c1.56-4.27,1.33-9.08,3.72-13.06a1.5,1.5,0,0,0-2.59-1.51c-2.26,3.75-2.45,8.1-3.55,12.24-.83,3.1-3.45,7.67-7.3,7.3a13.61,13.61,0,0,1-2.79-1,4.72,4.72,0,0,0-2.5-.14c-1.89.39-3.26,1.79-4.93,2.63a4.15,4.15,0,0,1-5.57-5.6c.89-1.71-1.69-3.23-2.59-1.51Z"/><path d="M54.09,120.7a16.89,16.89,0,0,1,.65,8.8c-.54,2.69-2.35,5.31-1.24,8.08a21.68,21.68,0,0,0,2.08,3.34,16.19,16.19,0,0,1,1.66,3.49,16.48,16.48,0,0,1,.59,8.21c-.35,1.89,2.54,2.7,2.89.8a19.85,19.85,0,0,0-.19-8.44,24.24,24.24,0,0,0-3.72-7.54c-.87-1.34-.72-2.35-.19-3.8a22.67,22.67,0,0,0,1.2-4.43,19.83,19.83,0,0,0-.84-9.3c-.62-1.82-3.52-1-2.89.79Z"/><path d="M309.39,135.5a7.1,7.1,0,0,0-4.73,9,8.52,8.52,0,0,0,9,5.66,8.83,8.83,0,0,0,2.64-16.88,8.76,8.76,0,0,0-11.11,3.93c-.89,1.72,1.7,3.23,2.59,1.52a5.8,5.8,0,0,1,6.2-3.08,5.84,5.84,0,0,1,.72,11.24,5.69,5.69,0,0,1-6.65-2.19c-1.41-2.25-.61-5.53,2.14-6.26a1.5,1.5,0,0,0-.79-2.9Z"/><path d="M317.39,148.19A162,162,0,0,1,328,161.51a34.47,34.47,0,0,1,3.91,6.23c.7,1.63,1.39,4,.2,5.53s-4.05,1.74-5.91,2.45a18.41,18.41,0,0,0-5,3,20.4,20.4,0,0,0-6.35,9.62,18.71,18.71,0,0,0,.61,13c.77,1.77,3.35.25,2.59-1.51-3-7.09.34-16.12,6.78-20.09,3.51-2.16,8.95-1.79,10.56-6.29,1.56-4.34-1.58-8.93-3.94-12.3a171.47,171.47,0,0,0-11.91-15.08c-1.29-1.45-3.4.68-2.13,2.12Z"/><path d="M316.11,204.1c.18.2-.18-.3-.06-.08a1,1,0,0,0,.1.18c-.22-.31-.1-.26-.06-.1s0,.13.05.19c-.13-.41,0-.28,0-.12a1.34,1.34,0,0,1,0,.2c0,.27.08-.37,0-.12,0,.07,0,.14-.05.21a1.18,1.18,0,0,0-.07.2c.08-.39.1-.23,0-.09a3.85,3.85,0,0,1-.23.38c-.14.23.23-.26.06-.07l-.16.17-.16.15c-.19.18.33-.21,0,0-.06,0-.12.08-.19.11s-.31.15-.05,0-.07,0-.13,0l-.3.08-.15,0c-.13,0-.13,0,0,0H314l-.32,0h-.15l.14,0-.63-.12c-.43-.09-.86-.2-1.28-.32a1.5,1.5,0,0,0-.8,2.9c2.2.59,4.72,1,6.63-.55a4.34,4.34,0,0,0,1.42-2.31,3.46,3.46,0,0,0-.76-3.1,1.51,1.51,0,0,0-2.13,0,1.55,1.55,0,0,0,0,2.12Z"/><path d="M332,172.45c-2.49,2.72-6.54,2.46-9.9,2.23s-6.94-.38-10.16,1.08a8,8,0,0,0-3.55,3,11.45,11.45,0,0,0-1.33,5.64c-.12,1.82-.42,3.49-2,4.59a4.7,4.7,0,0,1-4.39.62,1.55,1.55,0,0,0-2.05.54,1.51,1.51,0,0,0,.54,2.05,7.78,7.78,0,0,0,7.95-1,7.19,7.19,0,0,0,2.39-3.29c.62-1.75.44-3.61.7-5.41,1-6.57,9.94-4.72,14.48-4.67,3.43,0,7-.58,9.44-3.22,1.3-1.43-.81-3.55-2.12-2.13Z"/><path d="M317.88,150.69a64.24,64.24,0,0,1-16.26,16.54,1.53,1.53,0,0,0-.54,2.05,1.51,1.51,0,0,0,2.05.54,68,68,0,0,0,17.34-17.62c1.08-1.6-1.52-3.11-2.59-1.51Z"/><path d="M310.91,146.94a1.77,1.77,0,0,0-.86,1.07,1.85,1.85,0,0,0-.06.52,1.89,1.89,0,0,0,.08.53,2.31,2.31,0,0,0,1.5,1.47,2,2,0,0,0,.54.08h.08a2.42,2.42,0,0,0,.47-.06,2.3,2.3,0,0,0,1-.6,3.12,3.12,0,0,0,.76-1.49,6.48,6.48,0,0,1,.26-1.14l-.15.36a1.45,1.45,0,0,1,.2-.34l-.24.3a1.37,1.37,0,0,1,.17-.17l-.3.23a1,1,0,0,1,.17-.1l-.35.15.17,0a1.54,1.54,0,0,0,.89-.69,1.51,1.51,0,0,0-.54-2.06l-.35-.15a1.55,1.55,0,0,0-.8,0l-.17.05a2.81,2.81,0,0,0-.47.21,2.28,2.28,0,0,0-.52.42,3.51,3.51,0,0,0-.67,1.21c-.15.47-.14,1-.33,1.42l.15-.35a1.61,1.61,0,0,1-.17.28l.24-.3-.18.18.3-.24-.15.09.36-.15-.11,0,.4,0h-.13l.4,0a.42.42,0,0,1-.16,0l.36.15a.69.69,0,0,1-.17-.1l.3.24a.93.93,0,0,1-.14-.14l.23.3a1.19,1.19,0,0,1-.09-.15l.15.35a.2.2,0,0,1,0-.11l.05.4v-.09l-.06.4,0-.09-.16.36,0-.06-.23.31a.12.12,0,0,1,.05,0l-.31.23.07,0a1.55,1.55,0,0,0,.69-.9,1.53,1.53,0,0,0-.15-1.15,1.45,1.45,0,0,0-.9-.69,1.54,1.54,0,0,0-1.15.15Z"/><path d="M292.61,171.08q7.88.34,15.71,1.32a1.5,1.5,0,0,0,1.5-1.5,1.54,1.54,0,0,0-1.5-1.5q-7.83-1-15.71-1.32c-1.93-.09-1.93,2.91,0,3Z"/><path d="M298.22,171.18l-4,13.43c-.54,1.86,2.35,2.65,2.9.8l4-13.43c.55-1.86-2.35-2.65-2.9-.8Z"/><path d="M290.74,182.83c-2.89-.9-5.31,1.09-6.94,3.28a26.86,26.86,0,0,0-4.32,8.7,11,11,0,0,0,1.08,8.79,11.36,11.36,0,0,0,6.43,4.8c5.81,1.65,12.16-1.42,15-6.6,2.55-4.65,2.51-10.65-1-14.79s-10.39-5.69-15.28-2.76a1.5,1.5,0,0,0,1.52,2.59,9.22,9.22,0,0,1,10.3,1,9.51,9.51,0,0,1,2.78,10.38,10.72,10.72,0,0,1-9.66,7.64c-4.31.16-8.54-3-8.62-7.51-.05-3,1.44-5.78,2.87-8.32.93-1.65,2.69-5,5.06-4.29,1.85.58,2.64-2.32.8-2.89Z"/><path d="M329.39,182q6.24-6.51,13.09-12.41a1.51,1.51,0,0,0,0-2.12,1.53,1.53,0,0,0-2.12,0q-6.84,5.88-13.09,12.41c-1.34,1.4.78,3.52,2.12,2.12Z"/><path d="M333.12,177.38a15.48,15.48,0,0,0-1.36,10.23,1.5,1.5,0,0,0,1.84,1,1.54,1.54,0,0,0,1-1.85,9,9,0,0,1-.24-1.95,12.55,12.55,0,0,1,.11-2.21c0,.25,0-.18,0-.23,0-.21.08-.41.12-.62.08-.36.18-.72.29-1.07a10.25,10.25,0,0,1,.74-1.84,1.5,1.5,0,1,0-2.59-1.51Z"/><path d="M328.88,186.35a11.37,11.37,0,0,0-7.34,11.48,11.15,11.15,0,0,0,8.92,10c4.6.79,9.57-1.09,11.84-5.33a11.37,11.37,0,0,0-1.41-12.84,11.25,11.25,0,0,0-14-1.75c-1.61,1.05-.11,3.65,1.52,2.59a8.3,8.3,0,0,1,9.3.3c2.77,2,3.54,5.8,2.54,8.94a7.84,7.84,0,0,1-7.63,5.29,8,8,0,0,1-7.78-5.84,8.27,8.27,0,0,1,4.84-9.92,1.55,1.55,0,0,0,1.05-1.85,1.52,1.52,0,0,0-1.84-1.05Z"/><path d="M290.86,197a4,4,0,0,0,3.24,1.82c1.74.2,3.53.18,5.28.25l11.42.47,22.84.93a1.52,1.52,0,0,0,1.45-1.1c.31-1.68-1.35-3.52-3.08-2.46a2.14,2.14,0,0,0,.73,3.84c1.88.42,2.68-2.48.79-2.89l-1.33.71,1.44-1.1-20.85-.85-10.19-.42-5.21-.21c-.78,0-3.45.29-3.94-.5-1-1.64-3.61-.14-2.59,1.51Z"/><path d="M307,200.55l6.29,6.46a1.52,1.52,0,0,0,2.12,0,1.54,1.54,0,0,0,0-2.12l-6.28-6.46a1.5,1.5,0,0,0-2.13,2.12Z"/><path d="M309.41,196.5h0l-.29-.12-.51-.26a9,9,0,0,1-1-.61l-.51-.35c-.22-.17.16.13,0,0l-.24-.2c-.31-.26-.6-.53-.88-.81s-.51-.56-.76-.86.16.22,0,0L305,193l-.35-.52c-.2-.32-.39-.66-.56-1a5.69,5.69,0,0,0-.26-.56l.07.16a1.08,1.08,0,0,1-.08-.19l-.11-.29a1.5,1.5,0,1,0-2.89.8,13.42,13.42,0,0,0,7.81,8,1.5,1.5,0,0,0,1.84-1,1.53,1.53,0,0,0-1-1.84Z"/><path d="M294.43,196.28a21,21,0,0,1,2.29-12.13c.9-1.71-1.69-3.22-2.6-1.52a23.88,23.88,0,0,0-2.69,13.65,1.54,1.54,0,0,0,1.5,1.5,1.52,1.52,0,0,0,1.5-1.5Z"/><path d="M333.85,198.49V194a1.5,1.5,0,0,0-3,0v4.5a1.5,1.5,0,0,0,3,0Z"/><path d="M333.7,192.1A9.77,9.77,0,0,0,334,186a1.52,1.52,0,0,0-1.85-1.05,1.54,1.54,0,0,0-1,1.85,8.27,8.27,0,0,1,.23,1.1l-.05-.39a8.67,8.67,0,0,1,0,2.16l.05-.4a8.19,8.19,0,0,1-.52,2,1.54,1.54,0,0,0,.15,1.15A1.5,1.5,0,0,0,333,193a1.7,1.7,0,0,0,.69-.89Z"/><path d="M108.41,227.66c-3.23,3.28-2.11,8.14.51,11.38a10.21,10.21,0,0,0,5.13,3.72,8,8,0,0,0,6-1c3.54-2.21,4.94-6.71,4.21-10.68-.66-3.55-3.35-7.07-7.07-7.69s-8.37,1.72-8.95,5.82a1.55,1.55,0,0,0,1,1.85,1.51,1.51,0,0,0,1.84-1.05,4.61,4.61,0,0,1,4.67-3.75c2.43,0,4.36,1.93,5.16,4.12a7.79,7.79,0,0,1-1.4,7.93,4.83,4.83,0,0,1-7.45-.15c-2.08-2.06-4.14-5.82-1.63-8.38,1.36-1.38-.76-3.5-2.12-2.12Z"/><path d="M114,231.74l0,0-.24-.31s0,0,0,.06l-.15-.36a.14.14,0,0,1,0,.07l0-.4v.09l0-.4a.19.19,0,0,1,0,.1l.15-.36a.41.41,0,0,1,0,.09l.24-.31-.06.06.3-.23-.06,0,.36-.15-.06,0,.4-.06h-.06l.4.06-.07,0,.36.15,0,0,.3.24,0-.06.24.31a.35.35,0,0,1,0-.08l.15.36a.36.36,0,0,1,0-.1l0,.4v-.1l0,.4a.19.19,0,0,1,0-.08l-.15.35,0-.05-.23.3,0,0-.31.23,0,0a1.06,1.06,0,0,0,.42-.39,1,1,0,0,0,.27-.51,1.22,1.22,0,0,0,0-.6,1.09,1.09,0,0,0-.18-.55l-.23-.31a1.54,1.54,0,0,0-.67-.38l-.39-.06a1.43,1.43,0,0,0-.76.21l0,0h0l-.31.24h0l0,0h0l-.24.3,0,0v0h0c0,.05-.13.3-.16.36s0,0,0,0a0,0,0,0,1,0,0c0,.07,0,.18,0,.21s0,.14,0,.2v0a2.59,2.59,0,0,0,.05.47s0,.05,0,.08h0c0,.12.1.26.15.37l0,0,0,0,.24.31h0v0l0,0,.15.12.16.13h0l.21.09a1.46,1.46,0,0,0,.21.09h0l.21,0,.2,0h.06l.4-.05h0l0,0,.36-.15h0l0,0,.31-.24,0,0,0,0,.25-.31v0s0,0,0,0h0l.16-.37s0,0,0,0,0,0,0,0h0c0-.1.05-.31.06-.4v-.07c0-.07,0-.16,0-.22s0-.15,0-.22v0c0-.06-.07-.17-.08-.19l-.08-.18v0h0c-.06-.08-.17-.23-.24-.31l0,0a1.14,1.14,0,0,0-.48-.31,1.08,1.08,0,0,0-.58-.13,1.06,1.06,0,0,0-.58.13,1,1,0,0,0-.48.31l-.24.3a1.54,1.54,0,0,0-.2.76l.05.4a1.49,1.49,0,0,0,.39.66Z"/><path d="M108.27,233.09a11.67,11.67,0,0,0,4.59,3.27,1.52,1.52,0,0,0,1.16-.15,1.55,1.55,0,0,0,.69-.9,1.52,1.52,0,0,0-.15-1.16l-.24-.3a1.47,1.47,0,0,0-.66-.39l-.12-.05.36.16a10.44,10.44,0,0,1-2.23-1.31l.31.23a10.88,10.88,0,0,1-1.59-1.52,1.5,1.5,0,0,0-1.06-.44,1.53,1.53,0,0,0-1.06.44,1.56,1.56,0,0,0-.44,1.06,1.74,1.74,0,0,0,.44,1.06Z"/><path d="M114.55,242.71a141.72,141.72,0,0,0,.33,22.38c.18,1.91,3.18,1.93,3,0a141.72,141.72,0,0,1-.33-22.38c.12-1.93-2.88-1.92-3,0Z"/><path d="M114.39,265.33A58.74,58.74,0,0,0,110.5,273c-.38.91-.77,1.82-1.17,2.72-.16.36-.32.73-.49,1.09l-.18.35a.6.6,0,0,0-.06.11c0,.12.35-.38.46-.44l.75-.2h0l1.06.44h0l.39.66c0,.14-.08,1,0,.5.47-1.88-2.43-2.68-2.89-.8a1.77,1.77,0,0,0,.22,1.61,1.54,1.54,0,0,0,2.52-.17,10,10,0,0,0,.76-1.58c.73-1.65,1.41-3.33,2.19-5a59.93,59.93,0,0,1,2.89-5.43c1-1.64-1.57-3.15-2.59-1.51Z"/><path d="M114.78,267.86a27.5,27.5,0,0,0,5.72,7.53,1.5,1.5,0,0,0,2.12-2.12c-.55-.51-1.08-1-1.58-1.59-.26-.28-.5-.56-.74-.85l-.36-.44-.15-.19c-.14-.19.21.28,0-.05a27.24,27.24,0,0,1-2.39-3.8,1.51,1.51,0,0,0-2.05-.54,1.54,1.54,0,0,0-.54,2.05Z"/><path d="M116,250.46a12.49,12.49,0,0,0,5.4,8,1.51,1.51,0,0,0,2.06-.53,1.55,1.55,0,0,0-.54-2.06l-.45-.31s-.15-.13-.18-.13l.09.07-.08-.07c-.27-.22-.52-.45-.77-.69s-.5-.53-.73-.81a.79.79,0,0,0-.14-.17c.11.14.14.17.07.09l-.06-.09-.32-.45c-.19-.29-.36-.58-.53-.89-.07-.14-.15-.29-.22-.44l-.11-.24c-.12-.26.07.18,0,0a11,11,0,0,1-.6-2,1.52,1.52,0,0,0-1.85-1,1.54,1.54,0,0,0-1,1.85Z"/><path d="M114.41,249.27q-1.25,2.17-2.68,4.21c-.24.33-.47.66-.72,1l-.36.48c0,.05-.14.18,0,.06l-.19.23c-.53.68-1.08,1.34-1.64,2a1.54,1.54,0,0,0,0,2.12,1.52,1.52,0,0,0,2.12,0,54.1,54.1,0,0,0,6.1-8.56,1.5,1.5,0,1,0-2.59-1.52Z"/><path d="M108.87,261.26a1.5,1.5,0,0,0,0-3,1.5,1.5,0,0,0,0,3Z"/><path d="M501.11,507.5c.24-18.7,8.74-36.85,22.39-49.54a69.6,69.6,0,0,1,25.7-14.9,93,93,0,0,1,30-5.12c11,.09,21.91,2.83,30.77,9.51,1.55,1.16,3-1.44,1.52-2.59-16.8-12.65-39.89-11.55-59.12-5.93-10.32,3-19.94,7.54-28.21,14.46a73.39,73.39,0,0,0-18,22.6,71,71,0,0,0-8,31.51,1.5,1.5,0,0,0,3,0Z"/><path d="M500.41,509.31a19.51,19.51,0,0,1,15.75-11,1.57,1.57,0,0,0,1.44-1.1c3.08-9.23,14.06-14.63,23.27-11.67a1.53,1.53,0,0,0,1.84-1.05c3.07-7.6,12.26-11.87,20.06-9.6a1.53,1.53,0,0,0,1.84-1.05,21.41,21.41,0,0,1,22.17-12.71,1.55,1.55,0,0,0,1.85-1.05c3.08-9.48,14.24-15.18,23.74-12.28,1.85.57,2.64-2.33.79-2.89-11.1-3.39-23.85,3.38-27.42,14.38l1.84-1.05a24.47,24.47,0,0,0-25.86,14.81l1.85-1c-9.5-2.76-20.09,2.59-23.75,11.7l1.85-1.05c-10.82-3.48-23.38,3-27,13.76l1.45-1.1a22.52,22.52,0,0,0-18.34,12.45c-.84,1.73,1.75,3.25,2.59,1.51Z"/><path d="M538.07,442.84a200.36,200.36,0,0,0-22,49.58,1.51,1.51,0,0,0,2.9.8,197.37,197.37,0,0,1,21.66-48.87c1-1.65-1.57-3.15-2.59-1.51Z"/><path d="M536.61,443.93A145.83,145.83,0,0,0,540.13,483c.43,1.88,3.33,1.08,2.89-.8a142.74,142.74,0,0,1-3.41-38.27c.08-1.93-2.92-1.93-3,0Z"/><path d="M541.38,446.91a38.23,38.23,0,0,1,23,24.56c.56,1.84,3.45,1.06,2.89-.8A41.36,41.36,0,0,0,542.18,444c-1.81-.67-2.59,2.23-.8,2.89Z"/><path d="M540.9,444a63.53,63.53,0,0,1,47.38,17.24c1.4,1.33,3.53-.79,2.13-2.12a66.86,66.86,0,0,0-37.59-17.75A63.3,63.3,0,0,0,540.9,441c-1.92.12-1.93,3.12,0,3Z"/><path d="M665.85,523.9a9.71,9.71,0,0,0-11.12,5.17c-2,4.24-.44,9.53,3.15,12.42a12.06,12.06,0,0,0,13.52.7c4.35-2.53,6.82-7.67,4.94-12.54a9.42,9.42,0,0,0-13.1-4.87c-1.71.9-.2,3.49,1.51,2.59a6.4,6.4,0,0,1,8.51,2.69c1.71,3.29.25,7.05-2.65,9.08a9.33,9.33,0,0,1-10,.61,7.87,7.87,0,0,1-3.57-8.18,6.68,6.68,0,0,1,8-4.78,1.5,1.5,0,0,0,.8-2.89Z"/><path d="M652.22,536.42q-15.13-.09-30.23,1.32c-1.91.17-1.93,3.18,0,3q15.07-1.41,30.23-1.32a1.5,1.5,0,0,0,0-3Z"/><path d="M622.72,538.35a47.78,47.78,0,0,0-17.41-12.28,1.51,1.51,0,0,0-1.7.69l-6.53,13.79c-.83,1.73,1.76,3.26,2.59,1.51l6.54-13.79-1.7.69a44.53,44.53,0,0,1,16.09,11.51c1.29,1.44,3.41-.68,2.12-2.12Z"/><path d="M621.47,538.61,617,528.24c-.57-1.3-1.23-2.61-2.7-3a5.58,5.58,0,0,0-4.21.83c-6.54,3.57-12.66,7.91-19.21,11.46-1.7.92-.19,3.51,1.51,2.59,5.7-3.09,11.18-6.67,16.75-10,1.05-.63,2.62-2,3.91-2,1,0,1.52,2.09,1.84,2.84l4,9.24c.76,1.77,3.34.24,2.59-1.51Z"/><path d="M643.77,538.08l-9.29-9.48a1.5,1.5,0,0,0-2.12,2.12l9.29,9.48a1.5,1.5,0,1,0,2.12-2.12Z"/><path d="M637.51,520.35a2,2,0,0,0,1-3.64,2.16,2.16,0,0,0-2.52-.06,4.47,4.47,0,0,0-1.47,1.86l-4.79,9.12a1.53,1.53,0,0,0,.54,2,1.51,1.51,0,0,0,2.05-.53l3.23-6.15,1.56-3c.12-.22.22-.44.35-.64,0,0,.23-.32.15-.23s.18-.08,0,0a.88.88,0,0,1-.64.06.47.47,0,0,1-.42-.24c-.17-.2-.22-.24-.16-.13-.31-.44.22-1.43,1.06-1.47a1.5,1.5,0,0,0,0,3Z"/><path d="M651.29,504.05a62.31,62.31,0,0,0-14.42,12.07,1.51,1.51,0,0,0,.31,2.35c3.15,1.78,3.48,6.65,7.37,7.56,2.75.64,4.91-1.4,6.9-3l7.89-6.19a1.51,1.51,0,0,0,0-2.12,1.53,1.53,0,0,0-2.12,0l-7,5.45a34.23,34.23,0,0,1-3.21,2.43A2.32,2.32,0,0,1,645,523c-1.28-.53-2.05-2.24-2.74-3.33a10.76,10.76,0,0,0-3.55-3.82l.3,2.36a59.77,59.77,0,0,1,13.81-11.6c1.65-1,.14-3.6-1.51-2.59Z"/><path d="M651.16,506.71l6.44,8.2a1.5,1.5,0,0,0,2.12,0,1.55,1.55,0,0,0,0-2.12l-6.44-8.21a1.51,1.51,0,0,0-2.12,0,1.55,1.55,0,0,0,0,2.13Z"/><path d="M650.15,507.32l11.45-1.25a1.54,1.54,0,0,0,1.5-1.5,1.5,1.5,0,0,0-1.5-1.5l-11.45,1.25a1.55,1.55,0,0,0-1.5,1.5,1.5,1.5,0,0,0,1.5,1.5Z"/><path d="M662,503.42a10.06,10.06,0,0,0-5.11,7,1.67,1.67,0,0,0,.15,1.16,1.56,1.56,0,0,0,.9.69,1.51,1.51,0,0,0,1.84-1c.06-.3.12-.6.21-.9a4.42,4.42,0,0,1,.15-.48,1.8,1.8,0,0,1,.08-.21c0-.06.13-.31,0-.08s0,0,0-.07a2,2,0,0,1,.1-.21l.21-.41a8.57,8.57,0,0,1,.52-.81c0-.06.09-.12.13-.19s-.24.29,0,.05.19-.23.3-.34a6.65,6.65,0,0,1,.65-.65c.11-.1.24-.19.35-.3-.28.28-.1.08,0,0l.19-.13a8.54,8.54,0,0,1,.82-.5A1.51,1.51,0,0,0,664,504a1.54,1.54,0,0,0-2-.54Z"/><path d="M636.92,519.71l7.5,20.79c.65,1.8,3.55,1,2.89-.8l-7.5-20.79c-.65-1.8-3.55-1-2.89.8Z"/><line class="cls-13" x1="553.44" y1="476.25" x2="583.69" y2="533.62"/><polygon class="cls-14" points="1059.9 686.08 1048.18 681.07 1037.42 687.88 1038.56 675.2 1028.76 667.07 1041.17 664.23 1045.88 652.39 1052.41 663.33 1065.12 664.14 1056.74 673.73 1059.9 686.08"/><circle class="cls-15" cx="1047.08" cy="670.97" r="3.16"/><path d="M800.38,804.94a20.12,20.12,0,0,0-12.29,6.31c-.6.65-.05,1.36.7,1.43A215.18,215.18,0,0,0,846,810.87q8-1.33,15.88-3.25c.59-.15,1.9-1.25.86-1.79-7.43-3.85-15.86-4-24-3.8a279.18,279.18,0,0,0-28.16,2.08c-5.25.66-10.48,1.48-15.69,2.42-.56.1-1.37.69-1.19,1.35s1.15.67,1.71.57c8.73-1.58,17.54-2.73,26.38-3.47,8.45-.71,17.13-1.37,25.61-.78a33,33,0,0,1,13.14,3.28l.86-1.79a211,211,0,0,1-55.75,6c-5.27-.14-10.53-.49-15.77-1l.7,1.43a15.89,15.89,0,0,1,9.6-5c.6-.08,1.54-.42,1.6-1.15s-.76-1-1.33-.92Z"/><path d="M819.24,789.32A162.61,162.61,0,0,0,810,809c-.24.63.94.68,1.26.64a1.92,1.92,0,0,0,1.64-1,158.42,158.42,0,0,1,9-19.25c.67-1.22-2.23-.94-2.7-.09Z"/><path d="M819.21,791.07l5,1.24c1.24.3,2.89.49,3.44,1.83,1.15,2.74-2,5.08-3.11,7.24s-1.28,5.11.9,6.6a5.23,5.23,0,0,0,6.6-.81c.47-.52-.4-.78-.77-.79a2.59,2.59,0,0,0-1.92.77c-.13.16-.25.13.1.07a.87.87,0,0,1-.28,0,3.22,3.22,0,0,1-1.2-.48,3.34,3.34,0,0,1-1.31-2.57c-.2-2.8,2-4.55,3.28-6.75,1.1-1.92,1.29-4.47-.88-5.69a14.68,14.68,0,0,0-3.69-1.1L821,789.56a2.5,2.5,0,0,0-2,.55c-.45.42-.34.81.26,1Z"/><path d="M827.29,771.18l-10,20.81c-.63,1.3,2.27,1,2.71.11l10-20.8c.63-1.3-2.27-1-2.71-.12Z"/><path d="M825,775.3l-16.13,3.44c-.6.13-1.35.72-1.18,1.41s1.15.74,1.72.62l16.13-3.44c.6-.13,1.35-.72,1.18-1.41s-1.15-.74-1.72-.62Z"/><path d="M825.67,778.36v-.12l.26-.55,0,0,.56-.44-.06,0,.77-.2c.24,0,1.05.3.81.68l-.43.51c-.3.27-.85.1-.31.17.29,0,.57.11.86.15.52.09,1,.16,1.56.23,1.13.15,2.27.25,3.4.32a50.22,50.22,0,0,0,6.94-.1c.64-.06,1.52-.46,1.59-1.19s-.76-1-1.34-1a45.4,45.4,0,0,1-11.41-.47,4.32,4.32,0,0,0-2.66.13c-.69.32-1.53,1.21-1,2,.8,1.25,4,.68,3.41-1-.43-1.35-3.32-.56-2.9.78Z"/><path d="M833.42,760.52c-3.07-1.53-7.2.05-9.08,2.77a5.44,5.44,0,0,0-1,4.31A6,6,0,0,0,825.8,771a9.47,9.47,0,0,0,9.67.33c2.89-1.55,5.25-5.18,3.87-8.5-1.58-3.81-6.55-4.25-9.7-2.25-.5.32-.32.69.2.75a3.3,3.3,0,0,0,2-.54c.05,0,.37-.14.19-.1s.22,0,0,0a1.08,1.08,0,0,1,.24,0,4.22,4.22,0,0,1,1.56.39,4.88,4.88,0,0,1,2.43,2.31,6,6,0,0,1-1.77,6.87,4.36,4.36,0,0,1-1.32.78c-.28.1.34-.07-.16,0s.13,0-.17,0a3.73,3.73,0,0,1-.7.06,6.41,6.41,0,0,1-3-.79,5.2,5.2,0,0,1-2.91-5.65,5.4,5.4,0,0,1,2.06-3.06,4.27,4.27,0,0,1,.71-.42c-.12.06.12,0,.12,0l.08,0h.07a3.34,3.34,0,0,1,1.37.31,2.46,2.46,0,0,0,1.88-.11c.14-.05,1.35-.67.84-.92Z"/><path d="M809.27,790.84a90.71,90.71,0,0,0-16.65,4.06c-2.66.92-5.27,2-7.83,3.12a29.29,29.29,0,0,0-6.82,3.83,7.58,7.58,0,0,0-3,5.94,3.08,3.08,0,0,0,1,2.54,7.77,7.77,0,0,0,1.39.44,10.06,10.06,0,0,1,1.56.73c1.81,1.06,3,3.24.91,4.74a13.1,13.1,0,0,1-3,1.36l-4.6,1.77-19.33,7.45c-.48.18-1.13.77-.73,1.31s1.43.31,1.94.12l24.16-9.31c2.38-.91,5.93-2.39,5.62-5.53-.29-2.8-3.73-4.15-6.06-4.77l.59.48c-1.47-2.85.4-5.65,2.81-7.22a48.93,48.93,0,0,1,8.59-4.07,85.09,85.09,0,0,1,19.13-5.15c.56-.08,1.55-.38,1.63-1.07s-.79-.84-1.29-.77Z"/><path d="M774.53,835.8a95.5,95.5,0,0,1,20.16-10,93.13,93.13,0,0,1,10.73-3.08c2.92-.65,6.08-1.42,7.89-4a.5.5,0,0,0,0-.62l-1.94-2.38-.44,1a3.25,3.25,0,0,1,2.47-.17,2.42,2.42,0,0,0,2.05-.55c.43-.44.32-.91-.29-1.06a8.28,8.28,0,0,0-6,.88c-.34.18-.74.65-.43,1l1.94,2.38v-.62c-1.72,2.46-5.74,2.6-8.4,3.28a101,101,0,0,0-10.35,3.27,99.43,99.43,0,0,0-19.14,9.69c-.46.29-.79.79-.25,1.16a2.27,2.27,0,0,0,2.06-.26Z"/><path d="M252.07,488.23c0-5.35,7.33-4.08,10.69-4a24.58,24.58,0,0,0,12.31-3.48A68,68,0,0,0,285.54,473c1.62-1.37,3.33-3.27,5.45-3.81a14.11,14.11,0,0,1,3.73-.11,17.25,17.25,0,0,0,3.37-.21,17,17,0,0,0,11.29-7.25c1-1.54-1.68-2-2.44-.89a13.49,13.49,0,0,1-10.3,6.17c-2.52.15-4.94-.34-7.36.65a20.56,20.56,0,0,0-5.36,3.82,62.63,62.63,0,0,1-11,8.06,22.85,22.85,0,0,1-6.05,2.25,29.9,29.9,0,0,1-7.2.16,12.53,12.53,0,0,0-7.2,1.45,6.22,6.22,0,0,0-3.31,5.13c0,1.55,2.93,1.14,2.94-.2Z"/><path d="M275.9,459.42a1.79,1.79,0,0,1,.23-.65c.14-.23.17-.19.44-.31-.25.11.06,0,.15,0-.3.07.24,0,.31,0-.24,0,.16,0,.21,0a1.07,1.07,0,0,1,.37.08c1.47.44,2.23,2.3,2.63,3.67a54.09,54.09,0,0,0,1.33,5.34,7,7,0,0,0,1.4,2.3,2.36,2.36,0,0,0,1.57.69l2,.31a2,2,0,0,0,1.9-.85c.34-.65-.31-1-.84-1.06l-2.47-.38.8.34c-3-2.75-1.76-7.54-4.3-10.6a5.06,5.06,0,0,0-4.69-1.72c-1.73.24-3.66,1.25-3.94,3.15-.2,1.33,2.74.88,2.92-.28Z"/><path d="M273,453.7a206.76,206.76,0,0,0-.33,24.39c0,.82,2.95.27,2.9-.78a204.63,204.63,0,0,1,.32-24c.07-1.08-2.83-.5-2.89.4Z"/><path d="M272.45,433l.75,24c0,.58,2.92.11,2.89-.77l-.75-24.05c0-.57-2.92-.1-2.89.78Z"/><path d="M274.35,435.12,283,447c.52.71,3.32-.25,2.7-1.09L277.05,434c-.52-.71-3.33.24-2.7,1.09Z"/><path d="M273.65,415.77l-2.58,0c-.73,0-1.81.26-2,1.12-.8,4-3.25,8.57-1.85,12.73,1.29,3.79,5.27,5,8.91,4.2a8.72,8.72,0,0,0,7-7.77,12.1,12.1,0,0,0-5.24-10.65,7.74,7.74,0,0,0-7.36-.94c-2.14.92-3.91,3.13-3.37,5.54.28,1.25,3.19.5,2.9-.77a2.84,2.84,0,0,1,1.87-3.26c1.59-.46,3.41.69,4.56,1.68a10.76,10.76,0,0,1,3.71,8.78,5.93,5.93,0,0,1-4.53,5.55,4.75,4.75,0,0,1-5.67-3.69,11.71,11.71,0,0,1,.42-5.57c.52-2,1.21-4,1.61-6.09l-2,1.12,2.58,0a2,2,0,0,0,1.89-.87c.29-.6-.25-1.11-.85-1.11Z"/><path d="M269.07,434.72l-1.82,6.4a48.08,48.08,0,0,0-1.63,6.35c-.47,3.25.42,7.08,3.84,8.33a2.57,2.57,0,0,0,2-.3c.33-.19.94-.78.29-1-3.48-1.27-3.72-5.51-3.07-8.58.83-3.9,2.14-7.75,3.24-11.59.26-.91-2.63-.5-2.89.41Z"/><path d="M271.27,430.28a11.27,11.27,0,0,0-9.55,2.74,15.68,15.68,0,0,0-5.09,9.59,40.12,40.12,0,0,0,.24,12.42c.46,2.89,1.92,6,5.24,6a7.59,7.59,0,0,0,4.5-1.68c1.2-.84,2.44-2.17,4-2.28s2.2-2.37.23-2.22a8.46,8.46,0,0,0-4.29,1.72c-1,.72-2.26,2.05-3.57,2.22-3.41.45-3.43-6.58-3.56-8.51-.3-4.32-.34-9.11,1.89-13,1.82-3.16,5.25-5.66,9-4.85,1.49.31,2.89-1.8,1-2.21Z"/><path d="M257.45,438.15a15.62,15.62,0,0,0,10.27,2c.6-.09,1.52-.39,1.62-1.1s-.8-.91-1.31-.83a12.48,12.48,0,0,1-8.32-1.64,2.06,2.06,0,0,0-2.07.21c-.45.32-.81,1-.19,1.37Z"/><path d="M306.71,461c-5.39,6.19-5.37,14.94-5.85,22.68q-.94,15-1.87,29.92c0,.54,2.83.16,2.89-.78q.92-14.46,1.81-28.92c.49-7.72.27-16.84,5.66-23,.44-.5-.38-.6-.71-.59a2.89,2.89,0,0,0-1.93.72Z"/><ellipse class="cls-11" cx="149.94" cy="70.55" rx="10.34" ry="10.44" transform="translate(32.21 187.16) rotate(-69.92)"/><ellipse class="cls-11" cx="205.39" cy="112.74" rx="10.34" ry="10.44" transform="translate(29 266.96) rotate(-69.92)"/><ellipse class="cls-11" cx="320.93" cy="394.05" rx="10.34" ry="10.44" transform="translate(-159.34 560.22) rotate(-69.92)"/><ellipse class="cls-11" cx="498.42" cy="571.53" rx="10.34" ry="10.44" transform="translate(-209.48 843.49) rotate(-69.92)"/><ellipse class="cls-11" cx="649.11" cy="663.63" rx="10.34" ry="10.44" transform="translate(-197 1045.51) rotate(-69.92)"/><ellipse class="cls-11" cx="904.31" cy="657.66" rx="10.34" ry="10.44" transform="translate(-23.8 1281.29) rotate(-69.92)"/><ellipse class="cls-11" cx="803.82" cy="700.37" rx="10.34" ry="10.44" transform="translate(-129.91 1214.95) rotate(-69.92)"/><path d="M312.34,138.86a2.37,2.37,0,0,0-2.45-.05,2.71,2.71,0,0,0-.45.3,2,2,0,0,0-.38.39,1.65,1.65,0,0,0-.34.92,1.56,1.56,0,0,0,.3,1,2.1,2.1,0,0,0,.84.63,2.38,2.38,0,0,0,.52.15,2.44,2.44,0,0,0,.6,0,2.83,2.83,0,0,0,1.18-.34,2.72,2.72,0,0,0,.94-.81,2.46,2.46,0,0,0,.28-.5,2.12,2.12,0,0,0,.14-.55.85.85,0,0,0-.36-.76,1,1,0,0,0-.45-.19,1.23,1.23,0,0,0-.54-.05,2,2,0,0,0-1.09.4,1.27,1.27,0,0,0-.5.8,1.16,1.16,0,0,1,0,.18l.08-.29a1.09,1.09,0,0,1-.14.31l.17-.27a1.3,1.3,0,0,1-.18.23l.25-.25a.9.9,0,0,1-.18.15l.32-.2-.16.08.37-.14-.17,0,.39-.06h.23l-.18,0,.34.08a1,1,0,0,1-.21-.08l.28.15a1.18,1.18,0,0,1-.22-.17l.21.21a1.25,1.25,0,0,1-.16-.22l.13.27a.84.84,0,0,1-.07-.26l0,.29a.75.75,0,0,1,0-.21l-.08.29a1.11,1.11,0,0,1,.07-.16l-.17.28a.76.76,0,0,1,.11-.14l-.25.24.14-.11-.32.2.14-.07-.37.14.12,0-.4.07h.13l-.37,0,.12,0-.34-.08.12,0-.28-.15.07.05a1.53,1.53,0,0,0,1,.24,1.48,1.48,0,0,0,.58-.13,1.62,1.62,0,0,0,.5-.27,1.17,1.17,0,0,0,.5-.8l0-.29a.85.85,0,0,0-.34-.47Z"/><path d="M278.58,421.71h0l-.25.23.08-.06-.32.19.08,0-.38.14.1,0-.39.07h-.12l-.33-.07a.58.58,0,0,1,.17.06l-.28-.14a.66.66,0,0,1,.17.12l-.21-.19a.75.75,0,0,1,.14.17l-.12-.24a1.05,1.05,0,0,1,.05.19l0-.27a.52.52,0,0,1,0,.17l.08-.27a.46.46,0,0,1-.07.14l.18-.26-.09.1.25-.23-.11.09.32-.19-.13.06.38-.14-.14,0,.4-.07h.12l.33.07-.12,0,.27.14-.12-.09.21.19,0,0a.75.75,0,0,0-.35-.26,1.07,1.07,0,0,0-.47-.14,1.36,1.36,0,0,0-.57,0,1.75,1.75,0,0,0-.58.17l-.32.19a1.33,1.33,0,0,0-.42.49l-.09.27a.75.75,0,0,0,.14.52l.25.23.07.05.32.16.08,0c.12,0,.26.06.39.09h.59a3.54,3.54,0,0,0,.45-.08l.08,0,.43-.15.07,0,.37-.22.07,0a2.44,2.44,0,0,0,.29-.27l0,0a2.82,2.82,0,0,0,.21-.31l0-.06c0-.11.07-.22.1-.33l0-.08v-.07a1.94,1.94,0,0,0,0-.34.57.57,0,0,0,0-.14,1.58,1.58,0,0,0-.2-.36l-.05-.06-.26-.23a.6.6,0,0,0-.13-.09,3,3,0,0,0-.41-.18,2.88,2.88,0,0,0-.4-.09h-.09a3.27,3.27,0,0,0-.44,0h-.05l-.42.07-.08,0a3.39,3.39,0,0,0-.41.15l0,0-.19.11-.18.11,0,0a3.45,3.45,0,0,0-.28.26.84.84,0,0,0-.22.39.64.64,0,0,0,0,.41.57.57,0,0,0,.22.34.86.86,0,0,0,.39.23l.33.08a2.22,2.22,0,0,0,.77-.07l.37-.14a1.83,1.83,0,0,0,.58-.42Z"/><path d="M272.63,428.8c1.06,1.3,2.94,1.46,4.49,1.19,1.72-.3,3.73-1.15,4.42-2.9.21-.51-1-.38-1.17-.34a3.82,3.82,0,0,0-1.1.35c-.21.11-.5.25-.59.48a3.14,3.14,0,0,1-.18.37l-.1.18c-.09.15.06-.06,0,.06a2.68,2.68,0,0,1-.28.3,1.85,1.85,0,0,1-.14.14c-.16.15.15-.1,0,0l-.16.11c-.18.12-.09,0,0,0l-.18.09c-.22.11,0,0,.08,0l-.19.07c.43-.19.24-.07.11,0-.3.08.08,0,.12,0s-.19,0-.24,0,.38,0,.09,0h-.21c-.12,0,.3,0,0,0l-.21,0s-.27,0-.11,0l-.11,0-.39-.11-.19-.08s0,0,0,0l-.09-.05a4.05,4.05,0,0,1-.35-.21,3.15,3.15,0,0,1-.63-.58c-.12-.15-.6-.12-.74-.12a4.4,4.4,0,0,0-1.13.25c-.28.12-1.19.47-.85.88Z"/><path d="M665,526.11a4.21,4.21,0,0,0-.55,2.86,4.45,4.45,0,0,0,.47,1.37,4.32,4.32,0,0,0,1,1.16,1.6,1.6,0,0,0,1,.2,2.16,2.16,0,0,0,1.09-.4,1.13,1.13,0,0,0,.52-.73.75.75,0,0,0-.34-.68l0,0,.2.18a3.59,3.59,0,0,1-.73-1l.12.23a3.64,3.64,0,0,1-.37-1.41v.27a3.66,3.66,0,0,1,.17-1.32l-.09.26a3.57,3.57,0,0,1,.34-.71.72.72,0,0,0,0-.76,1.21,1.21,0,0,0-.82-.38,2,2,0,0,0-1.89.86Z"/><path d="M657.8,527.11A7.65,7.65,0,0,0,660,534.6c.14.13.59.09.73.08a4.32,4.32,0,0,0,1.13-.26c.21-.08,1.24-.46.87-.79a7.38,7.38,0,0,1-2.08-7c.12-.48-.93-.29-1.16-.25a4.25,4.25,0,0,0-1.1.34c-.17.09-.55.23-.6.43Z"/><path d="M833.41,764.92l1.11.57a.78.78,0,0,0,.3.07,2.06,2.06,0,0,0,.43,0,3.33,3.33,0,0,0,.55-.1,3.83,3.83,0,0,0,.58-.16l.34-.13a2,2,0,0,0,.48-.29l.12-.13a.15.15,0,0,0-.06-.22l-1.12-.56a.59.59,0,0,0-.29-.07,1.62,1.62,0,0,0-.44,0,3.53,3.53,0,0,0-.55.1,3.7,3.7,0,0,0-.57.16l-.34.13a2.36,2.36,0,0,0-.48.29l-.12.13a.15.15,0,0,0,.06.22Z"/><path d="M829.5,769a9.37,9.37,0,0,0,4.93,2.58,2.52,2.52,0,0,0,1.09,0,2.05,2.05,0,0,0,1-.51.64.64,0,0,0-.31-1.17,8.84,8.84,0,0,1-1-.23l-.48-.16c-.22-.08.23.09,0,0l-.24-.1a8.28,8.28,0,0,1-1.73-1.06l.2.16c-.25-.2-.48-.41-.71-.63a1.8,1.8,0,0,0-1.93-.1,1.55,1.55,0,0,0-.77.61.55.55,0,0,0,0,.67Z"/><path d="M1005.56,830.87c1.79-7.71,3.78-16.16,9.75-21.81.6-.58,1.37-1.48,2.16-.73a4.15,4.15,0,0,1,.94,2.15,39,39,0,0,1,.3,6.49l.37,15.25c0,1.41,2.95.89,2.92-.27l-.34-14c-.06-2.23,0-4.47-.17-6.69a7.06,7.06,0,0,0-1.18-3.93c-2.56-3.25-6.68.14-8.61,2.28a30.47,30.47,0,0,0-5.55,9.34,86,86,0,0,0-3.51,12.21c-.3,1.29,2.65.9,2.92-.27Z"/><path d="M1021.38,817.18a18.16,18.16,0,0,1,5.53-6.61c.94-.65,2.17-1.27,3-.19s1.15,3,1.5,4.3a53.52,53.52,0,0,1,1.55,19.15c-.15,1.53,2.8,1.16,2.94-.2a56.76,56.76,0,0,0-.09-11.8,42.56,42.56,0,0,0-2.68-11.68c-1.43-3.34-5.09-2.94-7.72-1.26a20.51,20.51,0,0,0-6.83,7.92c-.76,1.48,2.18,1.55,2.78.37Z"/><path d="M1034.88,818l2.53-3.4a34.38,34.38,0,0,1,2.31-3c.6-.63,1-.72,1.72-.17a6.22,6.22,0,0,1,1.71,2.51,36.17,36.17,0,0,1,1.9,7.55,54.51,54.51,0,0,1,.79,8.36c0,1.57,3,1.18,2.94-.19a57.22,57.22,0,0,0-1-9.86c-.55-2.87-1.1-6.17-2.78-8.62-1.49-2.19-4.14-3.14-6.49-1.61a12.32,12.32,0,0,0-2.87,3.23l-3.21,4.32c-1.11,1.49,1.61,2.05,2.44.93Z"/><path d="M959.38,787.32l-.41,10.4c-.05,1.44-.18,2.9-.14,4.34a3.29,3.29,0,0,0,1.23,2.87,5.43,5.43,0,0,0,3.6.45l5.08-.47c3.09-.28,6.23-.44,9.31-.92a14.53,14.53,0,0,0,6.82-2.57,9.4,9.4,0,0,0,3.25-6.68c.36-3.22.41-6.52.52-9.75.08-2.41-.65-4.17-3.32-4.3a48,48,0,0,0-5.35.3l-5.37.34-11.71.76c-.5,0-1.57.38-1.65,1s.83.65,1.25.62l16.84-1.09c1.3-.08,2.6-.18,3.91-.25s2.24.23,2.46,1.67a19.8,19.8,0,0,1-.07,3.77l-.21,4.4c-.11,2.29-.13,4.83-1.26,6.89a6.82,6.82,0,0,1-5,3.19,68.16,68.16,0,0,1-7.13.78c-2.73.25-5.48.62-8.22.76-1.67.08-2.07-1-2.1-2.52s.11-3,.17-4.43l.39-9.9c.05-1.18-2.86-.6-2.9.36Z"/><path d="M967.92,804.72l-.94,15c-.16,2.41-1.63,10,3.18,8.64.52-.15,1.39-.61,1.21-1.28s-1.19-.66-1.69-.51q.8.24.39-.09a1.4,1.4,0,0,1-.26-.46,3.45,3.45,0,0,1-.21-.84,15.62,15.62,0,0,1,.11-2.82l.37-5.83.76-12.1c.09-1.39-2.85-.92-2.92.27Z"/><path d="M942,796.48a5.93,5.93,0,0,0-6,5.52c-.12,3.23,2.79,5.09,5.79,5,3.45-.08,6.87-2.07,7.64-5.61a8.15,8.15,0,0,0-4-8.79,6.24,6.24,0,0,0-6.4.4c-1.36,1-2.43,2.89-1.52,4.51.53.94,3.32,0,2.9-.78a2.41,2.41,0,0,1,.46-2.92,1.84,1.84,0,0,1,.45-.34c-.19.12.29,0,0,0s.2,0,.1,0a3.77,3.77,0,0,1,1.79.53,7.32,7.32,0,0,1,3.46,6.68,5.89,5.89,0,0,1-1.28,3.47,3.54,3.54,0,0,1-1,.83,4.18,4.18,0,0,1-.6.27c.3-.11-.68.14-.37.09a3.71,3.71,0,0,1-1.2,0,4.1,4.1,0,0,1-1.55-.54,3.63,3.63,0,0,1-1.71-2.41,4.57,4.57,0,0,1,.54-3.13,3.42,3.42,0,0,1,.94-1.09l.09-.07c.14-.07.15-.08,0,0l.23-.1c-.42.18.28,0-.16,0l.25,0c-.15,0-.14,0,0,0a2.42,2.42,0,0,0,1.92-.78c.35-.56-.31-.8-.78-.8Z"/><path d="M943.67,808.2a29.27,29.27,0,0,0,16.64-3.2c.55-.3,1.08-.93.67-1.55a1.64,1.64,0,0,0-2-.25A25.05,25.05,0,0,1,944.66,806a1.86,1.86,0,0,0-1.89.91,1,1,0,0,0,.9,1.28Z"/><path d="M941,806.81v15.67c0,.6,2.9.15,2.9-.77V806c0-.59-2.9-.14-2.9.78Z"/><path d="M939,822.5a22,22,0,0,1-.07,10.88c-.12.46.93.25,1.14.21a4.68,4.68,0,0,0,1.1-.34c.17-.08.56-.22.61-.41a22.51,22.51,0,0,0,.12-11.12c-.14-.54-3,.19-2.9.78Z"/><path d="M941.15,822.61A58.1,58.1,0,0,0,952,833.44c.82.63,3.47-.58,2.28-1.49a56.42,56.42,0,0,1-10.42-10.52c-.66-.86-3.45.17-2.68,1.18Z"/><path d="M939.68,808.48a23.64,23.64,0,0,0,18.26,7.41c.61,0,1.52-.46,1.6-1.15s-.78-.92-1.33-.9a20.77,20.77,0,0,1-15.87-6.62c-.86-.93-3.62.23-2.66,1.26Z"/><path d="M941.6,802.75a2.87,2.87,0,0,0,1.09,1.86,3.74,3.74,0,0,0,2.72.75,2.42,2.42,0,0,0,1.1-.38,1.2,1.2,0,0,0,.53-.68c.06-.69-.78-.81-1.29-.77h.19a2.07,2.07,0,0,1-.35,0l.33,0a2.13,2.13,0,0,1-.51-.14l.27.11a2.51,2.51,0,0,1-.61-.36l.2.16a2.47,2.47,0,0,1-.64-.76l.12.21a2.08,2.08,0,0,1-.25-.8c0-.26-.39-.43-.58-.48a2.12,2.12,0,0,0-1.09,0,2,2,0,0,0-1,.52l-.18.24a.6.6,0,0,0-.09.47Z"/><path d="M1010.7,797.94a8.73,8.73,0,0,0,3.36,7.18c2.62,2,6.66,2.65,9.12,0a8.73,8.73,0,0,0,2-8.49,7,7,0,0,0-6.54-4.58c-3.33,0-7,2.44-6.93,6,0,.81,2.91.28,2.89-.77a4,4,0,0,1,1.12-2.78,3.76,3.76,0,0,1,1-.73,1.66,1.66,0,0,1,.91-.22c2.06,0,3.93,1.83,4.63,3.64a7.66,7.66,0,0,1-.86,6.84,4.59,4.59,0,0,1-1.06,1.26c-.1.08.17,0,0,0a4.82,4.82,0,0,1-1-.14,6.89,6.89,0,0,1-2.65-1.39,8,8,0,0,1-2.95-6.29c0-.62-.78-.61-1.23-.55s-1.64.36-1.66.94Z"/><path d="M1023.85,803.59a8.9,8.9,0,0,0,6.25,5,6.16,6.16,0,0,0,4.55-1.13,5.2,5.2,0,0,0,1.75-2.65,11.64,11.64,0,0,0,.42-3.32,11.13,11.13,0,0,0-.41-3.4,3.92,3.92,0,0,0-2-2.49,5.5,5.5,0,0,0-4.47.34,10.28,10.28,0,0,0-3.66,3.15c-1,1.23-2,2.77-1.54,4.41.25.83,3.14,0,2.9-.78a3.66,3.66,0,0,1,.9-3.16,11.75,11.75,0,0,1,2.09-2.36c.18-.14.37-.28.56-.4s.35-.16.24-.13,0,0,.08,0a2,2,0,0,1,.63.22,3.26,3.26,0,0,1,1.39,2,11.63,11.63,0,0,1,.26,5.28,6.42,6.42,0,0,1-.78,2.33,2.93,2.93,0,0,1-.61.7s-.27.17-.1.08c-.25.13-.09,0,0,0,.28-.12,0,0-.13,0a6,6,0,0,1-3.15-1.59,8.83,8.83,0,0,1-2.23-2.88c-.42-.85-3.23.11-2.9.78Z"/><path d="M1038.25,800.17c-1.83,2.66-.57,6,1.51,8.08,2.36,2.4,5.79,3.69,9,2.17,3-1.4,3.82-4.93,3.17-7.92a7.2,7.2,0,0,0-5.48-5.71c-2.91-.58-6.57.82-7.64,3.76-.58,1.58,2.32,1.6,2.78.35a2.86,2.86,0,0,1,.59-1,2.9,2.9,0,0,1,.72-.58l.37-.18s.28-.11,0,0c.22-.08.45-.13.68-.19s.09,0,0,0l.35,0h.36c-.25,0,.18,0,.19,0a3.61,3.61,0,0,1,1.62.54,6.92,6.92,0,0,1,.69.52,6,6,0,0,1,1.56,2.44c.62,1.77.78,4.63-.77,6a2.73,2.73,0,0,1-2.39.52,6.3,6.3,0,0,1-2.89-1.59,7.83,7.83,0,0,1-2.1-3,3.61,3.61,0,0,1,0-3.25c1-1.53-1.66-2-2.43-.89Z"/><path d="M1043.19,802.91a3.76,3.76,0,0,0,2-.55c.39-.29.47-.54-.14-.54a3.76,3.76,0,0,0-2,.55c-.39.29-.47.54.14.54Z"/><path d="M1029.57,800.91l-.06,0,.27-.17,0,0,.33-.15h0l.38-.12h0l.4-.09h0l.37,0h.22l.26.06-.09,0,.18.1a.73.73,0,0,1-.22-.21l.09.13a1.35,1.35,0,0,1-.21-.81v.17a1.85,1.85,0,0,1,0-.23.18.18,0,0,0,0-.23.3.3,0,0,0-.22-.17,1,1,0,0,0-.42-.06,2.24,2.24,0,0,0-.52,0,3.22,3.22,0,0,0-1.1.35l-.27.17a.83.83,0,0,0-.31.36.64.64,0,0,0,0,.2,1.54,1.54,0,0,0,0,.37,1.18,1.18,0,0,0,.1.42.51.51,0,0,0,.09.18,2,2,0,0,0,.19.28.71.71,0,0,0,.14.1,1.18,1.18,0,0,0,.56.2h.35l.39,0h0a2.84,2.84,0,0,0,.42-.09l.41-.14a2.63,2.63,0,0,0,.35-.15h0l.3-.19,0,0a.72.72,0,0,0,.25-.27.28.28,0,0,0,.06-.25.27.27,0,0,0-.18-.19.62.62,0,0,0-.35-.1,2.77,2.77,0,0,0-1.07.1l-.38.13a2.48,2.48,0,0,0-.6.32Z"/><path d="M1012.25,802.2l4.58,1a2.33,2.33,0,0,0,1.08-.06,2.29,2.29,0,0,0,1-.49c.15-.15.37-.39.28-.63a.69.69,0,0,0-.56-.41l-4.58-1a2.32,2.32,0,0,0-1.08.06,2.23,2.23,0,0,0-1,.49c-.15.15-.37.39-.28.64a.68.68,0,0,0,.56.4Z"/><path d="M1024.42,805c1.81,2,5.17,2,7.28.48a1.22,1.22,0,0,0,.53-.69.6.6,0,0,0-.32-.61,2.14,2.14,0,0,0-2.07.23l-.25.16c-.15.1.32-.16.11-.06l-.12.06c-.14.06-.51.15,0,0l-.29.08c-.12,0-.32,0,.16,0l-.14,0-.3,0c-.24,0,.08,0,.13,0s-.1,0-.13,0l-.34,0-.14,0c.08,0,.3.06.1,0l-.3-.07-.29-.1c-.13,0,.27.12,0,0l-.12-.06a3.48,3.48,0,0,1-.55-.33l0,0c.13.1,0,0-.05-.05l-.24-.24a1.77,1.77,0,0,0-1.94-.11c-.4.19-1.21.78-.74,1.31Z"/><path d="M1042.59,807.43h.07l-.14,0-.16,0h.09l-.36,0h.13l-.25,0a2.07,2.07,0,0,1,.43.1l-.18-.06a1.73,1.73,0,0,1,.57.34.67.67,0,0,0,.3.08,1.62,1.62,0,0,0,.44,0,4.4,4.4,0,0,0,1.13-.25l.33-.14a2,2,0,0,0,.48-.3l.12-.14a.17.17,0,0,0-.06-.23,2.15,2.15,0,0,0-1-.48,3.59,3.59,0,0,0-1,0,5.22,5.22,0,0,0-1.18.21,3.88,3.88,0,0,0-1,.4.56.56,0,0,0-.26.22.19.19,0,0,0-.08.2l.08.1a1,1,0,0,0,.42.09,3.44,3.44,0,0,0,1.06-.15Z"/><path d="M1044.66,802.43l-.42-1.26a.68.68,0,0,0-.23-.38.9.9,0,0,0-.4-.26,1.14,1.14,0,0,0-.52-.09,1.61,1.61,0,0,0-.58,0l-.38.15a1.5,1.5,0,0,0-.56.44,1,1,0,0,0-.23.86l.42,1.26a.69.69,0,0,0,.24.38.82.82,0,0,0,.39.26,1.17,1.17,0,0,0,.52.09,1.69,1.69,0,0,0,.59,0l.37-.15a1.62,1.62,0,0,0,.57-.44,1,1,0,0,0,.22-.86Z"/><path d="M944.28,798.47l1.13.27a2.09,2.09,0,0,0,.5,0,2.28,2.28,0,0,0,.57-.1,2.06,2.06,0,0,0,.54-.2,1.92,1.92,0,0,0,.44-.25l.19-.19a.41.41,0,0,0,.11-.36l-.09-.15a.9.9,0,0,0-.45-.18l-1.12-.26a2.09,2.09,0,0,0-.5,0,2.13,2.13,0,0,0-.57.1,2.27,2.27,0,0,0-.55.2,1.86,1.86,0,0,0-.43.25l-.19.19a.4.4,0,0,0-.12.36l.1.15a.8.8,0,0,0,.44.17Z"/><path d="M1015,797.87l1.12-.14a1.65,1.65,0,0,0,.58-.14,1.26,1.26,0,0,0,.51-.27,1,1,0,0,0,.33-.37.78.78,0,0,0,.17-.42l0-.29a.85.85,0,0,0-.34-.47l-.28-.15a1.72,1.72,0,0,0-.71-.09l-1.12.14a1.69,1.69,0,0,0-.59.13,1.62,1.62,0,0,0-.5.27,1.12,1.12,0,0,0-.34.38.77.77,0,0,0-.16.42l0,.29a.89.89,0,0,0,.34.47l.28.14a1.57,1.57,0,0,0,.71.1Z"/></svg>