<svg id="Layer_2" data-name="Layer 2" xmlns="http://www.w3.org/2000/svg" viewBox="0 0 2049.78 817.11"><defs><style>.cls-1,.cls-13{font-size:40px;font-family:Caveat-Regular, Caveat;}.cls-2{letter-spacing:-0.01em;}.cls-3{fill:#271b0f;stroke:#271b0f;}.cls-10,.cls-11,.cls-14,.cls-15,.cls-16,.cls-3{stroke-miterlimit:10;}.cls-15,.cls-16,.cls-3{stroke-width:2px;}.cls-4{letter-spacing:-0.01em;}.cls-5{letter-spacing:0em;}.cls-6{letter-spacing:0.01em;}.cls-7{letter-spacing:-0.01em;}.cls-8{letter-spacing:-0.02em;}.cls-9{letter-spacing:0em;}.cls-10,.cls-11,.cls-14,.cls-15{fill:none;}.cls-10,.cls-11{stroke:#1a1a1a;}.cls-10,.cls-11,.cls-14{stroke-width:4px;}.cls-11{stroke-dasharray:11.93 11.93;}.cls-12{fill:#1a1a1a;}.cls-13{letter-spacing:0.01em;}.cls-14,.cls-15,.cls-16{stroke:#000;}</style></defs><text class="cls-1" transform="translate(1794.57 747.98) scale(1.01 1)"><tspan class="cls-2">S</tspan><tspan x="19.04" y="0">an Diego</tspan></text><text class="cls-1" transform="translate(1514.13 524.21) scale(1.01 1)">Los Angeles</text><ellipse class="cls-3" cx="669.31" cy="400.5" rx="8.53" ry="8.61" transform="translate(63.4 891.68) rotate(-69.92)"/><text class="cls-1" transform="translate(1201.75 673.35) scale(1.01 1)"><tspan class="cls-2">S</tspan><tspan x="19.04" y="0">anta Bar</tspan><tspan class="cls-4" x="144.76" y="0">b</tspan><tspan class="cls-5" x="161.76" y="0">ara</tspan></text><ellipse class="cls-3" cx="1506.41" cy="599.51" rx="8.53" ry="8.61" transform="matrix(0.34, -0.94, 0.94, 0.34, 426.24, 1808.61)"/><text class="cls-1" transform="translate(1511.42 629.36) scale(1.01 1)">Malibu</text><text class="cls-1" transform="translate(577.38 439.92) scale(1.01 1)"><tspan class="cls-6">B</tspan><tspan x="21.2" y="0">ig Sur</tspan></text><text class="cls-1" transform="translate(75.63 141.39) scale(1.01 1)"><tspan class="cls-7">M</tspan><tspan x="28.4" y="0">uir Woods</tspan></text><text class="cls-1" transform="translate(611.17 351.92) scale(1.01 1)">Carmel by the Sea</text><text class="cls-1" transform="translate(341.87 113.43) scale(1.01 1)"><tspan class="cls-7">S</tspan><tspan x="19.04" y="0">an </tspan><tspan class="cls-8" x="64.2" y="0">F</tspan><tspan class="cls-9" x="82.04" y="0">rancisco</tspan></text><ellipse class="cls-3" cx="995.51" cy="541.16" rx="8.53" ry="8.61" transform="translate(145.51 1290.43) rotate(-69.92)"/><path class="cls-10" d="M1958.18,733.58a32.09,32.09,0,0,1-5.65-2"/><path class="cls-11" d="M1942,726c-11.16-7-27.5-20.18-47.11-44.78-37.69-47.25-109.49-35.83-123.57-49.35s-29.87-33.93-89.33-38.92-65.77-28.22-94.93-41-60.26,26.1-81.57,49.7-60.26,26.11-85.85,20.94-81.87-36.2-115.91-29.8-68,35.81-87.51,37.06-50,15.23-72.45,36.3-75-8.59-88-42.61-21.29-74.74-54.34-82.64S953,546.2,931.82,517.52s-47.28-15.19-92-31.54-52.24-42.11-138-73.45-102-33.11-114.12-75.19-10.66-98.06-49.1-91.18-50.11,21.44-66.89,15.31-31,9.6-75.13-54.66S315.24,99.68,290.85,97c-14.92-1.62-32.43-2.61-43.79-3.14"/><path class="cls-10" d="M241.1,93.63c-3.75-.15-6-.22-6-.22"/><ellipse class="cls-12" cx="1957.27" cy="733.44" rx="10.34" ry="10.44" transform="translate(596.55 2320.03) rotate(-69.92)"/><ellipse class="cls-12" cx="1579.74" cy="554.33" rx="10.34" ry="10.44" transform="translate(516.83 1847.81) rotate(-69.92)"/><ellipse class="cls-12" cx="1252.32" cy="617.64" rx="10.34" ry="10.44" transform="translate(242.34 1581.86) rotate(-69.92)"/><ellipse class="cls-12" cx="592.63" cy="349.29" rx="10.34" ry="10.44" transform="translate(61.14 786.02) rotate(-69.92)"/><text class="cls-13" transform="translate(806.28 580.81) scale(1.01 1)">P<tspan class="cls-9" x="18.96" y="0">ismo Beach </tspan></text><ellipse class="cls-12" cx="236.89" cy="93.13" rx="10.34" ry="10.44" transform="translate(68.11 283.67) rotate(-69.92)"/><path d="M159,405.48a415.11,415.11,0,0,0,10.05-95.38q-.15-13.55-1.19-27.05c-.14-1.91-3.14-1.93-3,0a411.88,411.88,0,0,1-3.69,95q-2.08,13.38-5.06,26.6c-.42,1.88,2.47,2.68,2.89.79Z"/><path d="M187.19,250.19l-7.78,31.67c-.46,1.87,2.43,2.67,2.9.79L190.09,251c.46-1.88-2.44-2.68-2.9-.8Z"/><path d="M177.06,297.3c-2.4,15.57-2.6,31.33-2.56,47.05,0,13.76,0,27.71,3,41.22a70.14,70.14,0,0,0,8.16,21.05,1.5,1.5,0,0,0,2.59-1.51c-6.91-11.5-9.37-24.88-10.24-38.1-.44-6.73-.5-13.48-.52-20.23,0-7.63,0-15.27.22-22.91A214.17,214.17,0,0,1,180,298.09c.29-1.88-2.6-2.7-2.89-.79Z"/><path d="M181.26,284.05c-2-1.81-5-1-6.57,1-1.91,2.48-1,5.76,0,8.42a1.5,1.5,0,1,0,2.89-.79,16.21,16.21,0,0,1-1-3.39c0,.3,0-.11,0-.18s0-.28,0-.42,0-.29,0-.43.06-.43,0-.17a5.72,5.72,0,0,1,.2-.79c.08-.29-.14.25,0,0,.06-.1.11-.2.18-.3s.25-.27.08-.13.07-.07.11-.11l.21-.21s.32-.23.12-.11l.13-.08.26-.15.13-.07h0l.13,0,.28-.08c.32-.1-.16,0,0,0a2.44,2.44,0,0,0,.27,0c.06,0,.38,0,.12,0s.55.15.22.06,0,0,.11.07c.32.17-.19-.17,0,0a1.5,1.5,0,1,0,2.12-2.13Z"/><path d="M176.53,293.81c0,3.79,3.69,5.85,7,6.33a27.08,27.08,0,0,1,5.95,1.05c1.77.68,3.47,1.55,5.42,1.12,3-.66,4.1-3.92,3.73-6.63-.46-3.47-3.23-5.56-5.89-7.47-.76-.54-1.51-1.08-2.21-1.69a12,12,0,0,0-2.19-1.78,4.68,4.68,0,0,0-3.08-.4,6,6,0,0,1-1.5.27l-.24-.06c-.34.14.1-.67-.1.27.41-1.88-2.49-2.69-2.9-.8a2.93,2.93,0,0,0,2.25,3.44,5,5,0,0,0,2.4,0c.68-.13,1.26-.35,1.88,0a15.62,15.62,0,0,1,1.57,1.36c.61.52,1.26,1,1.9,1.47a26.45,26.45,0,0,1,3.62,2.88c1.33,1.37,2.32,3.86,1,5.6-.66.87-1.77.71-2.72.39a27.18,27.18,0,0,0-4.81-1.53c-1.83-.27-3.82-.22-5.56-.91-1.22-.49-2.53-1.47-2.53-2.91a1.5,1.5,0,0,0-3,0Z"/><path d="M163.46,285.07c-4.33,3.46-10.26.58-12.67-3.66a13.52,13.52,0,0,1-1.38-3.47c-.24-1-.72-2.55.18-3.34,1.25-1.11,3.67-.92,5.2-1.39,2.06-.64,4.05-2.07,3-4.45-.89-2.08-3.22-2.78-5.08-3.7-4.24-2.1-6.42-6.66-8.9-10.44a33.16,33.16,0,0,0-5.51-6.42c-2.22-2-5.16-4.74-3.86-8,.71-1.8-2.19-2.58-2.89-.8-1.52,3.85,1,7.58,3.71,10.13a41.58,41.58,0,0,1,4.16,4.13,45.69,45.69,0,0,1,2.75,4c1.75,2.79,3.48,5.74,6,7.94a15.19,15.19,0,0,0,3.92,2.5c1,.43,3.07,1.07,3,2.36l.44-1.06c-1.76,2-5.24,1.2-7.41,2.6-3.29,2.11-1.92,6.72-.63,9.63a13.42,13.42,0,0,0,7.72,7.37,10.9,10.9,0,0,0,10.34-1.76c1.51-1.2-.63-3.31-2.12-2.12Z"/><path d="M133.1,234.84c-1.82-3.6-3.81-7.42-4-11.53-.12-3,.92-6.43,3.43-8.29,1.35-1,2.92-1.17,4.49-1.59a6.77,6.77,0,0,0,4.1-2.73,16.6,16.6,0,0,0,1.88-4.92c.52-1.85,1-3.72,1.44-5.58a33.13,33.13,0,0,1,3.95-10.13c1.87-2.85,4.79-4.94,6.05-8.19a13.41,13.41,0,0,0,.46-5.91c-.11-1.78-.16-3.59,1-5.07a5.12,5.12,0,0,1,7.78-.58,5.57,5.57,0,0,1,1.44,4.91c-.24,1.77-.31,3.52,1,4.91a5.14,5.14,0,0,0,7.82-.43h-2.59c2,4.26,5.3,9.12,10.64,8.31,1.9-.29,1.09-3.18-.8-2.89-3.64.55-6-4.28-7.25-6.93-.52-1.12-2-.82-2.59,0s-1.88.65-2.62.22c-1.4-.84-.58-2.75-.5-4.06a8.46,8.46,0,0,0-4.81-7.87,8.18,8.18,0,0,0-9.08,1.67,8,8,0,0,0-2.33,4.3c-.36,2.08.09,4.12,0,6.2-.1,3.78-3.46,6.12-5.54,8.91A30.53,30.53,0,0,0,142,197.82c-.51,1.85-.94,3.72-1.42,5.57a22.57,22.57,0,0,1-1.71,5.31c-.95,1.7-2.73,1.84-4.45,2.27a10,10,0,0,0-4.34,2.23,13,13,0,0,0-4,9.76c.08,4.8,2.28,9.21,4.4,13.39.88,1.73,3.47.21,2.59-1.51Z"/><path d="M181.45,191.52a32.14,32.14,0,0,1-.35,12c-.41,1.85-1.06,3.58-1.65,5.38a9.33,9.33,0,0,0-.54,4.15c.19,1.29,1.06,3,2.51,3.22,1.2.17,2.69-1.1,3.51-1.87,1.87-1.76,2.95-4.19,4-6.46,1.18-2.43,2.41-5,5-6.23,1.75-.81.23-3.4-1.51-2.59-3,1.38-4.62,4.35-6,7.18-1.21,2.49-2.47,5.89-5.23,7.05l1.15.16c-1.11-.73-.34-2.85,0-3.82a55.78,55.78,0,0,0,1.73-5.79,36.33,36.33,0,0,0,.27-13.19c-.31-1.9-3.2-1.09-2.9.8Z"/><path d="M199.2,198.27c.65-2,3.93-.92,4.66.47,1.88,3.6-1.83,6.87-3.39,9.69a5.22,5.22,0,0,0-.42,4.7,7.93,7.93,0,0,0,2.75,3c1.17.9,2.35,1.76,2.6,3.31.3,1.86-.3,3.81-.44,5.66-.33,4.14,1.36,8,2.5,11.88a33.4,33.4,0,0,1,1.15,12.54c-.18,1.85-.37,4.18-1.31,5.84-.86,1.49-2.84,1.8-4.17,2.74-2.62,1.85-3.12,5-3.86,7.87a7.41,7.41,0,0,1-2.25,4.21,11.94,11.94,0,0,1-4.06,1.88c-3.07,1-6.49,1.76-8.57,4.43-1.17,1.51.94,3.64,2.13,2.12,2-2.52,5.3-3,8.15-3.95,3.22-1.11,5.74-2.85,7-6.13,1.13-3,.89-6.87,4.16-8.51,1.73-.87,3.36-1.64,4.26-3.48a19,19,0,0,0,1.45-6.09,35.22,35.22,0,0,0-1-13.82c-.59-2.15-1.39-4.22-2-6.38a16.51,16.51,0,0,1-.38-6.6c.26-2,.6-4-.1-5.93a8.66,8.66,0,0,0-3.21-3.8c-1.1-.83-2.55-1.78-2-3.35.57-1.81,2.27-3.21,3.14-4.89,1.77-3.39,2.24-8.52-1.66-10.66-2.83-1.56-6.85-.92-7.95,2.43-.6,1.84,2.3,2.63,2.9.79Z"/><path d="M177.89,252.51a170.65,170.65,0,0,0-7,22.38c-.45,1.88,2.44,2.68,2.89.8a173.24,173.24,0,0,1,7-22.38c.7-1.8-2.19-2.58-2.89-.8Z"/><path d="M170.47,274l.37.42c1.15,1.33,3.13-.37,2.35-1.82a123.23,123.23,0,0,0-8.92-14.29,1.55,1.55,0,0,0-2.06-.54,1.52,1.52,0,0,0-.54,2.05,122.09,122.09,0,0,1,8.93,14.3l2.36-1.82-.37-.43a1.52,1.52,0,0,0-2.12,0,1.54,1.54,0,0,0,0,2.13Z"/><path d="M167.54,240.35a7.8,7.8,0,0,0,2.35,10.09,8,8,0,0,0,5.62,1.21c1.9-.31,3.39-1.45,5-2.45a5.29,5.29,0,0,1,2.18-1c1-.1,1.84.59,2.7.93a7.5,7.5,0,0,0,5.32,0c3.62-1.38,6.27-4.77,7.51-8.35,1.61-4.66,1.43-9.87,4-14.17a1.5,1.5,0,0,0-2.59-1.52c-1.93,3.2-2.52,6.84-3.23,10.44s-1.6,6.81-4.32,9.27a6.52,6.52,0,0,1-4,1.83c-1.7.07-3-1.16-4.62-1.38-3.44-.45-5.34,2.86-8.44,3.42a4.7,4.7,0,0,1-4.94-6.83c.9-1.7-1.69-3.22-2.59-1.51Z"/><path d="M152.15,228.84a18.69,18.69,0,0,1,.75,9.58c-.58,3-2.65,6-1.37,9a24.54,24.54,0,0,0,2.21,3.5,18.11,18.11,0,0,1,2.52,13c-.36,1.88,2.54,2.69,2.89.79a21.65,21.65,0,0,0-.25-9.34,27,27,0,0,0-4.05-8.12c-1-1.56-.75-2.8-.12-4.47a23.09,23.09,0,0,0,1.27-4.9,21.65,21.65,0,0,0-1-9.88c-.62-1.82-3.52-1-2.89.8Z"/><path d="M466.92,130.45c-4.37,1-7.6,5.64-5.93,10.06,1.74,4.59,6.93,6.82,11.59,6.3s9.14-3.64,9.88-8.57-2.58-8.89-7-10.53c-4.91-1.82-11.11,0-13.86,4.56a1.5,1.5,0,0,0,2.59,1.51,8.67,8.67,0,0,1,8.71-3.66c3.07.54,6.32,2.83,6.62,6.15.7,7.66-10.68,10-14.89,4.72a4.48,4.48,0,0,1-.81-4.56,5.41,5.41,0,0,1,3.87-3.09c1.88-.43,1.09-3.32-.8-2.89Z"/><path d="M477.8,144.68A198.69,198.69,0,0,1,491.94,160a41.08,41.08,0,0,1,5.29,7.24c1,1.9,1.87,4.58.36,6.44-1.72,2.12-5.21,2.16-7.64,2.89a23.34,23.34,0,0,0-6.79,3.29A23.78,23.78,0,0,0,474.54,191a18.83,18.83,0,0,0,.74,14.93c.87,1.72,3.45.2,2.59-1.52-4.34-8.66,1-18.89,8.89-23.27a27.77,27.77,0,0,1,7.32-2.49c2.7-.65,5.48-1.79,6.69-4.48,2.3-5.06-2-10.45-5-14.16a198.76,198.76,0,0,0-15.89-17.44c-1.38-1.35-3.5.77-2.12,2.12Z"/><path d="M476.09,209a.94.94,0,0,1,.1.1c.08.09.05.05-.08-.12l.13.23c-.07,0-.11-.36,0,0,0,.06,0,.32,0,0s0,0,0,.1c0,.25,0,0,0-.1a3.34,3.34,0,0,0-.14.52q.13-.3.06-.15l-.06.13a1.58,1.58,0,0,1-.15.24c0,.06-.21.23-.05.09s-.07.07-.1.11l-.18.17-.15.13.14-.1c-.08.13-.38.25-.52.32l-.09.05c-.15.07-.12.06.08,0-.06.06-.22.07-.3.1a5.77,5.77,0,0,1-.72.16c.32-.06-.07,0-.14,0l-.41,0a7.67,7.67,0,0,1-.83,0l-.34,0-.29,0c.19,0-.18,0-.21,0l-.42-.07c-.55-.1-1.09-.22-1.64-.35a1.5,1.5,0,0,0-.8,2.89,19.21,19.21,0,0,0,4.12.64,6.76,6.76,0,0,0,3.86-.94,5,5,0,0,0,2.12-2.78,3.49,3.49,0,0,0-.88-3.4,1.5,1.5,0,1,0-2.13,2.12Z"/><path d="M497.26,172.93c-2.58,2.47-6.41,2.78-9.81,2.77-3.69,0-7.36-.56-11.06-.23-3.26.29-6.72,1-9.24,3.27a8.2,8.2,0,0,0-2.52,4.22c-.49,2.07-.15,4.31-.88,6.32-1.27,3.47-6,4.44-9.14,3.27-1.81-.68-2.59,2.22-.79,2.89a10.75,10.75,0,0,0,10.23-1.71,7.89,7.89,0,0,0,2.81-4.45c.48-2.07.14-4.33.9-6.32,1.2-3.13,5.12-4.11,8.11-4.44,3.86-.43,7.71.17,11.58.18,4.24,0,8.75-.6,11.93-3.65,1.4-1.33-.72-3.45-2.12-2.12Z"/><path d="M478.75,147.52A81.46,81.46,0,0,1,456.7,167a1.5,1.5,0,0,0,1.52,2.59,83.72,83.72,0,0,0,22.65-19.9,1.54,1.54,0,0,0,0-2.12,1.52,1.52,0,0,0-2.12,0Z"/><path d="M468.44,136.34a2,2,0,0,0-1,.25,1.71,1.71,0,0,0-.87,1.56,3.18,3.18,0,0,0,.06.43s0,0,0,0a2.58,2.58,0,0,0,.18.46,2.36,2.36,0,0,0,.35.48,1.29,1.29,0,0,0,.16.17,3.47,3.47,0,0,0,.38.29l.1.06a2,2,0,0,0,.93.24l.24,0c.05,0,.16,0,.23,0h0l.37-.16,0,0a1.85,1.85,0,0,0,.67-.69,1.69,1.69,0,0,0,.14-1.24,1.63,1.63,0,0,0-.18-.45,1.56,1.56,0,0,0-.35-.46,2.2,2.2,0,0,0-.84-.48l-.1,0a4.63,4.63,0,0,0-.52-.07,1.13,1.13,0,0,0-.26,0,3.55,3.55,0,0,0-.64.1,2.85,2.85,0,0,0-.31.12,2,2,0,0,0-.3.14,2.25,2.25,0,0,0-.39.3l-.08.08a1.85,1.85,0,0,0-.48.85c0,.09,0,.31-.05.4v.1a1.78,1.78,0,0,0,.09.52,1.06,1.06,0,0,0,.27.51,1,1,0,0,0,.42.38,1.09,1.09,0,0,0,.55.18,1.12,1.12,0,0,0,.6,0l.36-.15a1.47,1.47,0,0,0,.54-.54l.15-.35a1.55,1.55,0,0,0,0-.8.27.27,0,0,1,0-.12l.05.4v-.1l-.05.4a.29.29,0,0,1,0-.09l-.15.36a.21.21,0,0,1,.06-.1l-.24.31a.57.57,0,0,1,.11-.11l-.31.24a.78.78,0,0,1,.2-.11l-.36.15a1.78,1.78,0,0,1,.33-.09l-.4.06a1.22,1.22,0,0,1,.33,0l-.4-.05a.86.86,0,0,1,.23.06l-.36-.15.13.07-.3-.23a.3.3,0,0,1,.08.08l-.23-.31.05.09-.15-.36a.43.43,0,0,1,0,.11l-.05-.4v.06l.21-.76a.56.56,0,0,1-.05.08l.23-.3-.06.06.31-.24-.07,0,.36-.15-.07,0,.4-.05h-.09l.39.05-.11,0,.36.15-.16-.1.31.24a.85.85,0,0,1-.19-.19l.23.3a1.32,1.32,0,0,1-.12-.2l.16.36a.78.78,0,0,1,0-.14l.06.4a.27.27,0,0,1,0-.09l-.06.4a.64.64,0,0,1,0-.07l-.15.36,0,0-.24.3,0,0-.3.24.07,0-.36.15.12,0-.4.05h.07a1.61,1.61,0,0,0,1.06-.44,1.11,1.11,0,0,0,.31-.49,1,1,0,0,0,.13-.57l-.05-.4a1.47,1.47,0,0,0-.39-.67,1.51,1.51,0,0,0-1.06-.43Z"/><path d="M469.07,143.59a1.5,1.5,0,0,0-.45.33,1.79,1.79,0,0,0-.46.77,1.82,1.82,0,0,0,.09,1.24,2.44,2.44,0,0,0,1.54,1.37,2.37,2.37,0,0,0,1.18,0,2.47,2.47,0,0,0,1.09-.59,2.63,2.63,0,0,0,.57-.72,3.87,3.87,0,0,0,.34-.85,10.88,10.88,0,0,1,.32-1.28l-.15.36a1.64,1.64,0,0,1,.24-.43l-.23.3a2.39,2.39,0,0,1,.22-.23l-.3.24.24-.15-.35.15a1.29,1.29,0,0,1,.28-.08,1.5,1.5,0,0,0,1.05-1.84,1.46,1.46,0,0,0-.69-.9l-.36-.15a1.51,1.51,0,0,0-.79,0,2.58,2.58,0,0,0-.72.26,2.86,2.86,0,0,0-.58.44,3.61,3.61,0,0,0-.77,1.27c-.2.51-.2,1.07-.41,1.58l.15-.36a2.12,2.12,0,0,1-.21.36l.23-.3a1.26,1.26,0,0,1-.2.2l.31-.23-.27.16.36-.15-.16,0,.4-.06h-.21l.4,0a1.25,1.25,0,0,1-.26-.07l.36.15-.23-.14.3.23-.18-.18.24.31-.09-.15.15.36a.44.44,0,0,1,0-.1l0,.4a.33.33,0,0,1,0-.1l-.06.4a.64.64,0,0,1,0-.07l-.15.36a.41.41,0,0,1,.05-.09l-.24.31.06-.06-.3.23.11-.06a1.52,1.52,0,0,0,.69-.9,1.5,1.5,0,0,0-1-1.84l-.4-.05a1.41,1.41,0,0,0-.75.2Z"/><path d="M444.46,171q10.49.4,20.92,1.52a1.51,1.51,0,0,0,1.5-1.5,1.54,1.54,0,0,0-1.5-1.5Q455,168.37,444.46,168c-1.93-.08-1.92,2.92,0,3Z"/><path d="M452.42,171.36l-5.3,15.47c-.63,1.83,2.27,2.62,2.89.8l5.3-15.47c.63-1.83-2.27-2.62-2.89-.8Z"/><path d="M441.84,184.94c-3.55-1-6.69,1.18-8.85,3.84a29.49,29.49,0,0,0-5.66,10.27,11,11,0,0,0,1.88,9.91,14.59,14.59,0,0,0,8.91,5.19c7.07,1.23,14.85-1.76,18.6-8,3.19-5.33,2.84-12.34-1.77-16.73a17.44,17.44,0,0,0-19.44-2.85c-1.71.89-.19,3.48,1.52,2.59,4.35-2.27,9.92-1.6,14,1a10.18,10.18,0,0,1,4.16,12.3c-1.88,5.32-7.3,8.62-12.77,9-5.3.35-12.29-2.54-12.54-8.68-.15-3.63,2-7,3.93-9.93,1.52-2.33,4-5.85,7.24-5a1.5,1.5,0,0,0,.8-2.89Z"/><path d="M493.06,183.64q8.22-7.42,17.12-14.06a1.54,1.54,0,0,0,.54-2.05,1.52,1.52,0,0,0-2.06-.54q-9.2,6.85-17.72,14.53c-1.44,1.29.69,3.41,2.12,2.12Z"/><path d="M498.81,178.56a15.55,15.55,0,0,0-1.77,11.6,1.5,1.5,0,1,0,2.89-.8,12.46,12.46,0,0,1,1.47-9.29,1.5,1.5,0,0,0-2.59-1.51Z"/><path d="M492.86,189c-5.47,1.86-10.12,7-9.4,13s5.85,10.41,11.71,11.25c5.54.79,11.8-1,14.93-5.94A11.73,11.73,0,0,0,508,192.4a16,16,0,0,0-17.71-1.66,1.5,1.5,0,0,0,1.52,2.59,13.08,13.08,0,0,1,12.54.14,8.73,8.73,0,0,1,3.93,10.79c-3.38,8.73-18.22,8.08-21.38-.47-1.93-5.24,1.81-10.23,6.73-11.91,1.81-.61,1-3.51-.8-2.89Z"/><path d="M442.57,200.88c1.08,1.57,2.8,1.94,4.6,2.05,2.42.15,4.86.17,7.29.26l14.87.52,29.74,1a1.52,1.52,0,0,0,1.45-1.1,2.31,2.31,0,0,0-3.67-2.34c-1.69,1.43-.24,3.59,1.54,3.83.81.11,1.5-.77,1.5-1.5a1.53,1.53,0,0,0-1.5-1.5l-.76.71,1.44-1.1-27.76-1-13.87-.49-6.94-.24c-1.05,0-2.1-.06-3.15-.11-.61,0-1.8,0-2.19-.57-1.09-1.58-3.69-.08-2.59,1.51Z"/><path d="M464,205l8.36,7.43a1.5,1.5,0,0,0,2.13-2.12l-8.36-7.43A1.5,1.5,0,0,0,464,205Z"/><path d="M466.7,200.67l-.74-.26-.28-.11c.16.07-.17-.08-.2-.1a14.72,14.72,0,0,1-1.37-.7c-.43-.25-.86-.52-1.27-.81l-.28-.21,0,0-.16-.12-.57-.48a14.6,14.6,0,0,1-1.05-1c-.15-.17-.3-.33-.44-.5a3.76,3.76,0,0,1-.25-.31c.16.21,0,0-.08-.11q-.41-.56-.75-1.14c-.12-.2-.23-.41-.33-.62s-.12-.23-.17-.35-.18-.41-.05-.11a1.54,1.54,0,0,0-1.85-1,1.52,1.52,0,0,0-1,1.84,16.35,16.35,0,0,0,10,9,1.49,1.49,0,0,0,1.84-1,1.54,1.54,0,0,0-1-1.85Z"/><path d="M446.39,200.2a21.7,21.7,0,0,1,3.11-14.08c1-1.65-1.58-3.16-2.59-1.52a24.34,24.34,0,0,0-3.52,15.6,1.54,1.54,0,0,0,1.5,1.5,1.51,1.51,0,0,0,1.5-1.5Z"/><path d="M498.85,202.74v-5.18a1.51,1.51,0,0,0-1.5-1.5,1.53,1.53,0,0,0-1.5,1.5v5.18a1.51,1.51,0,0,0,1.5,1.5,1.53,1.53,0,0,0,1.5-1.5Z"/><path d="M498.52,195.68a10,10,0,0,0,.54-7.22,1.52,1.52,0,0,0-1.84-1.05,1.54,1.54,0,0,0-1.05,1.85c.08.24.14.48.2.72s.05.25.07.37l0,.16c0,.17,0,.14,0-.08a1.09,1.09,0,0,1,0,.32c0,.14,0,.28,0,.42s0,.47,0,.7l0,.37c0,.37.06-.34,0,0s-.09.5-.15.74a6.59,6.59,0,0,1-.22.72c0,.1-.07.2-.11.31s-.05.13,0-.06l-.09.2a1.64,1.64,0,0,0-.15,1.15,1.5,1.5,0,0,0,2.74.36Z"/><path d="M212,337.7c-3.94,4-2.54,10,.65,13.93,1.63,2,3.77,4,6.36,4.63a9.73,9.73,0,0,0,7.38-1.24c4.35-2.71,6.08-8.26,5.18-13.13-.81-4.4-4.11-8.76-8.72-9.52s-10.19,2.14-10.9,7.13a1.55,1.55,0,0,0,1.05,1.84,1.49,1.49,0,0,0,1.84-1c.44-3.07,3.35-5,6.35-5.07,3.28,0,5.91,2.59,7,5.54a10.36,10.36,0,0,1-1.89,10.51,6.57,6.57,0,0,1-10.07-.2c-2.82-2.79-5.45-7.82-2.07-11.25,1.35-1.38-.77-3.5-2.13-2.13Z"/><path d="M219.19,342.32l.05.05-.24-.3.05.07-.16-.36a.41.41,0,0,1,0,.08l-.06-.39a.2.2,0,0,1,0,.11l.06-.4a.5.5,0,0,1,0,.13L219,341a.3.3,0,0,1-.06.11l.23-.31a.27.27,0,0,1-.07.08l.3-.24-.07.05.35-.15-.07,0,.39-.05H220l.4.05-.08,0,.36.15-.07,0,.3.23a.17.17,0,0,1-.06-.06l.23.3L221,341l.16.36a.93.93,0,0,1,0-.13l.05.39v-.12l-.05.4a.45.45,0,0,1,0-.11l-.15.36a.16.16,0,0,1,0-.07l-.23.3a.12.12,0,0,1,.05-.05l-.31.23.05,0a1,1,0,0,0,.42-.38,1,1,0,0,0,.27-.52,1.07,1.07,0,0,0,0-.59,1.12,1.12,0,0,0-.18-.56l-.23-.3a1.49,1.49,0,0,0-.66-.39l-.4,0a1.54,1.54,0,0,0-.76.2l0,0h0l-.31.24,0,0h0v0c0,.05-.2.25-.24.3l0,0v0c0,.07-.13.29-.16.36a.43.43,0,0,0,0,0,.06.06,0,0,0,0,0c0,.13,0,.29-.06.42v0a2.28,2.28,0,0,0,.06.5.44.44,0,0,0,0,.1v0c0,.12.1.25.16.37l0,0,0,0,.23.31h0l0,0,0,0,.16.12.16.13h0l.22.1.22.09h0l.41.06H220l.4-.06h0l0,0,.36-.15h0l0,0s0,0,0,0l.31-.24,0,0a.08.08,0,0,0,0,0,3.65,3.65,0,0,0,.24-.31l0,0,0-.05v0l.15-.37a.14.14,0,0,0,0-.06l0-.06c0-.13,0-.28.05-.41v-.09c0-.07,0-.16,0-.22s0-.16,0-.23l0-.05c0-.06-.07-.16-.08-.19s-.05-.13-.08-.19v0l0,0h0l-.23-.31-.05,0a1.08,1.08,0,0,0-.48-.31,1.36,1.36,0,0,0-1.16,0,1.14,1.14,0,0,0-.48.31l-.23.3a1.48,1.48,0,0,0-.21.76l.05.4a1.59,1.59,0,0,0,.39.66Z"/><path d="M211.85,344a14.5,14.5,0,0,0,5.66,4.06,1.5,1.5,0,0,0,1.85-1.05,1.49,1.49,0,0,0-.15-1.15,1.76,1.76,0,0,0-.9-.69l-.15-.07.36.15a12.49,12.49,0,0,1-2.61-1.49l-.13-.1c-.14-.1.3.25.07.06l-.28-.23L215,343a13.65,13.65,0,0,1-1-1.11,1.5,1.5,0,0,0-1.06-.44,1.54,1.54,0,0,0-1.06.44,1.52,1.52,0,0,0-.44,1.06,1.68,1.68,0,0,0,.44,1.06Z"/><path d="M220,356.59a180.93,180.93,0,0,0,.43,28.51c.18,1.9,3.18,1.92,3,0a180.93,180.93,0,0,1-.43-28.51c.12-1.93-2.88-1.93-3,0Z"/><path d="M219.71,385.6a74.07,74.07,0,0,0-5,9.72c-.49,1.15-1,2.31-1.49,3.46-.2.46-.41.93-.63,1.38-.07.15-.16.3-.23.46s-.06.09-.08.14.33-.36.44-.41l.76-.21h0l1.06.44h0l.39.66c.05.19-.08,1,.06.41.46-1.87-2.43-2.67-2.89-.8a1.86,1.86,0,0,0,.2,1.7,1.54,1.54,0,0,0,2.53-.18,12.71,12.71,0,0,0,1-2c.94-2.11,1.79-4.25,2.8-6.33a72.56,72.56,0,0,1,3.68-6.91c1-1.65-1.57-3.15-2.59-1.52Z"/><path d="M220.21,388.42a34.51,34.51,0,0,0,7.21,9.51,1.5,1.5,0,0,0,2.12-2.12,31.21,31.21,0,0,1-6.74-8.9,1.5,1.5,0,1,0-2.59,1.51Z"/><path d="M221.78,366.35a15.54,15.54,0,0,0,6.7,9.89,1.51,1.51,0,0,0,2.05-.54,1.53,1.53,0,0,0-.54-2.05l-.57-.4-.22-.16c.2.16,0,0-.08-.07-.34-.28-.67-.58-1-.89a13.09,13.09,0,0,1-.93-1l-.17-.21c.16.2,0-.05-.06-.09s-.27-.37-.4-.57c-.24-.36-.47-.74-.68-1.13l-.28-.56c-.05-.1-.09-.21-.14-.31-.12-.25,0,.07,0-.09a14.8,14.8,0,0,1-.77-2.59,1.5,1.5,0,0,0-1.84-1.05,1.54,1.54,0,0,0-1.05,1.85Z"/><path d="M219.73,365.15a64.63,64.63,0,0,1-7.23,10.22,1.53,1.53,0,0,0,0,2.12,1.5,1.5,0,0,0,2.12,0,69.15,69.15,0,0,0,7.7-10.82,1.5,1.5,0,1,0-2.59-1.52Z"/><path d="M212.32,379.8a1.5,1.5,0,0,0,0-3,1.5,1.5,0,0,0,0,3Z"/><path d="M791.26,665.76c.24-18.71,8.74-36.85,22.4-49.55a69.36,69.36,0,0,1,25.7-14.89,92.86,92.86,0,0,1,30-5.13c11,.1,21.91,2.84,30.78,9.52,1.54,1.16,3-1.45,1.51-2.59-16.8-12.66-39.89-11.56-59.12-5.93-10.31,3-19.93,7.53-28.21,14.46a73.46,73.46,0,0,0-18,22.59,70.88,70.88,0,0,0-8,31.52,1.5,1.5,0,0,0,3,0Z"/><path d="M790.56,667.56a19.5,19.5,0,0,1,15.75-10.95,1.59,1.59,0,0,0,1.45-1.11c3.07-9.23,14-14.63,23.26-11.66a1.55,1.55,0,0,0,1.85-1.05c3.06-7.61,12.25-11.87,20-9.61a1.54,1.54,0,0,0,1.85-1,21.39,21.39,0,0,1,22.17-12.71,1.55,1.55,0,0,0,1.84-1c3.08-9.49,14.24-15.18,23.74-12.28,1.85.56,2.64-2.33.8-2.9-11.11-3.38-23.86,3.38-27.43,14.38l1.84-1.05a24.47,24.47,0,0,0-25.86,14.81l1.85-1.05c-9.5-2.76-20.08,2.59-23.75,11.7l1.85-1c-10.82-3.48-23.38,3-27,13.77l1.45-1.1A22.51,22.51,0,0,0,788,666.05c-.84,1.73,1.75,3.25,2.59,1.51Z"/><path d="M828.23,601.09a200.15,200.15,0,0,0-22,49.58,1.5,1.5,0,0,0,2.89.8,197,197,0,0,1,21.67-48.86c1-1.65-1.58-3.16-2.59-1.52Z"/><path d="M826.76,602.18a145.79,145.79,0,0,0,3.52,39.07c.43,1.88,3.33,1.09,2.9-.8a142.27,142.27,0,0,1-3.42-38.27c.09-1.93-2.91-1.92-3,0Z"/><path d="M831.54,605.17a38.18,38.18,0,0,1,23,24.55c.56,1.85,3.45,1.06,2.9-.79a41.39,41.39,0,0,0-25.11-26.66c-1.81-.67-2.59,2.23-.79,2.9Z"/><path d="M831.05,602.22a63.6,63.6,0,0,1,47.39,17.24c1.39,1.34,3.52-.78,2.12-2.12A66.81,66.81,0,0,0,843,599.6a64.16,64.16,0,0,0-11.92-.38c-1.92.12-1.93,3.12,0,3Z"/><path d="M955.28,668.4a9.74,9.74,0,0,0-11.13,5.18c-2,4.24-.43,9.53,3.16,12.42a12.08,12.08,0,0,0,13.52.7c4.35-2.54,6.82-7.67,4.94-12.54a9.41,9.41,0,0,0-13.1-4.87c-1.71.89-.2,3.48,1.51,2.59a6.39,6.39,0,0,1,8.51,2.69c1.71,3.29.25,7-2.65,9.08a9.33,9.33,0,0,1-10,.61,7.88,7.88,0,0,1-3.57-8.19,6.68,6.68,0,0,1,8.05-4.77,1.51,1.51,0,0,0,.8-2.9Z"/><path d="M941.65,680.93q-15.14-.09-30.23,1.31c-1.91.18-1.93,3.18,0,3q15.08-1.41,30.23-1.31a1.5,1.5,0,0,0,0-3Z"/><path d="M912.15,682.86a47.78,47.78,0,0,0-17.41-12.28,1.49,1.49,0,0,0-1.7.69l-6.53,13.78c-.83,1.74,1.76,3.26,2.59,1.52l6.54-13.79-1.7.69A44.53,44.53,0,0,1,910,685c1.29,1.44,3.41-.69,2.12-2.12Z"/><path d="M910.9,683.12q-2.24-5.19-4.46-10.37c-.57-1.31-1.23-2.61-2.7-3a5.57,5.57,0,0,0-4.21.82c-6.54,3.58-12.66,7.91-19.21,11.46-1.7.92-.19,3.52,1.51,2.59,5.7-3.09,11.18-6.67,16.75-10,1-.63,2.62-2,3.91-2,1,0,1.52,2.08,1.84,2.84l4,9.24c.76,1.77,3.34.24,2.59-1.51Z"/><path d="M933.2,682.59l-9.29-9.49a1.5,1.5,0,1,0-2.12,2.13l9.29,9.48a1.5,1.5,0,1,0,2.12-2.12Z"/><path d="M926.94,664.86a2,2,0,0,0,1-3.65,2.16,2.16,0,0,0-2.52-.06A4.57,4.57,0,0,0,924,663l-4.79,9.12a1.53,1.53,0,0,0,.54,2.05,1.51,1.51,0,0,0,2-.54l3.23-6.14,1.56-3c.12-.21.22-.43.35-.64,0,0,.23-.32.15-.22s.18-.08.05,0a.83.83,0,0,1-.64.07.48.48,0,0,1-.42-.24c-.17-.2-.22-.25-.16-.14-.31-.43.22-1.42,1.06-1.46a1.53,1.53,0,0,0-1.5,1.5,1.51,1.51,0,0,0,1.5,1.5Z"/><path d="M940.71,648.56a62.68,62.68,0,0,0-14.41,12.06,1.52,1.52,0,0,0,.31,2.36c3.15,1.78,3.48,6.65,7.37,7.55,2.75.65,4.91-1.39,6.9-2.95l7.89-6.19a1.51,1.51,0,0,0,0-2.12,1.53,1.53,0,0,0-2.12,0l-6.95,5.44a34.34,34.34,0,0,1-3.21,2.44,2.35,2.35,0,0,1-2.08.39c-1.28-.53-2-2.24-2.74-3.34a10.81,10.81,0,0,0-3.55-3.81l.3,2.35a60,60,0,0,1,13.81-11.59c1.65-1,.14-3.6-1.52-2.59Z"/><path d="M940.59,651.21l6.44,8.2a1.5,1.5,0,0,0,2.12,0,1.55,1.55,0,0,0,0-2.12l-6.44-8.2a1.5,1.5,0,0,0-2.12,0,1.54,1.54,0,0,0,0,2.12Z"/><path d="M939.58,651.83,951,650.58a1.54,1.54,0,0,0,1.5-1.5,1.5,1.5,0,0,0-1.5-1.5l-11.45,1.25a1.55,1.55,0,0,0-1.5,1.5,1.51,1.51,0,0,0,1.5,1.5Z"/><path d="M951.39,647.93a10,10,0,0,0-5.11,7,1.65,1.65,0,0,0,.15,1.15,1.52,1.52,0,0,0,.9.69,1.51,1.51,0,0,0,1.84-1,8.86,8.86,0,0,1,.21-.89,4.42,4.42,0,0,1,.15-.48,2,2,0,0,1,.08-.22s.13-.3,0-.07,0,0,0-.08a1.24,1.24,0,0,1,.1-.2l.21-.41c.16-.28.33-.55.52-.82l.13-.18c.11-.15-.24.29,0,0l.3-.35a6.55,6.55,0,0,1,.65-.64c.11-.11.24-.2.35-.3-.28.27-.1.08,0,0l.18-.13c.27-.18.55-.35.83-.5a1.5,1.5,0,1,0-1.51-2.59Z"/><path d="M926.35,664.22l7.5,20.79c.65,1.8,3.55,1,2.89-.8l-7.5-20.79c-.65-1.8-3.55-1-2.89.8Z"/><line class="cls-14" x1="843.6" y1="634.5" x2="873.85" y2="691.88"/><polygon class="cls-15" points="1674.1 570.29 1662.38 565.28 1651.62 572.1 1652.76 559.41 1642.95 551.28 1655.37 548.44 1660.08 536.6 1666.61 547.54 1679.33 548.35 1670.95 557.95 1674.1 570.29"/><circle class="cls-16" cx="1661.28" cy="555.18" r="3.16"/><path d="M1549.45,697.57a24.34,24.34,0,0,0-14.89,7.65c-.59.65,0,1.34.7,1.42a265.65,265.65,0,0,0,70.57-2.23q9.89-1.65,19.64-4c.59-.15,1.9-1.24.86-1.78-9.16-4.78-19.66-4.89-29.76-4.65a345.92,345.92,0,0,0-34.64,2.59c-6.45.8-12.87,1.8-19.26,3-.56.1-1.37.69-1.2,1.35s1.16.66,1.71.56q16.42-3,33.08-4.34,8.29-.69,16.61-1a141.59,141.59,0,0,1,15.14,0,40.93,40.93,0,0,1,16.08,4.09l.87-1.77a262.15,262.15,0,0,1-69.08,7.39q-9.83-.27-19.6-1.27l.7,1.42a20.05,20.05,0,0,1,12.19-6.41c.6-.07,1.54-.41,1.61-1.14s-.76-1-1.33-.9Z"/><path d="M1573.05,678.28a200,200,0,0,0-11.3,24.09c-.22.57,2.56.29,2.86-.49a199.26,199.26,0,0,1,11.31-24.08c.27-.49-1-.36-1.17-.33-.54.08-1.41.29-1.7.81Z"/><path d="M1573,680l6.26,1.53c1.58.39,3.67.64,4.38,2.36,1.42,3.43-2.5,6.32-3.86,9s-1.57,6.24,1.1,8.06a5.94,5.94,0,0,0,7.53-.87c.47-.52-.41-.78-.77-.8a2.59,2.59,0,0,0-1.92.78c-.6.66-1.76.05-2.35-.37a4.22,4.22,0,0,1-1.65-3.22c-.25-3.5,2.5-5.69,4.09-8.45,1.32-2.29,1.57-5.42-1-6.87a17.84,17.84,0,0,0-4.5-1.34l-5.47-1.34a2.53,2.53,0,0,0-2,.54c-.45.42-.34.82.26,1Z"/><path d="M1583.09,655.52l-12.42,25.74c-.66,1.37,2.25,1.18,2.73.19l12.42-25.74c.66-1.37-2.25-1.18-2.73-.19Z"/><path d="M1580.05,660.91l-20,4.27c-.57.12-1.35.69-1.18,1.36s1.16.71,1.71.59l20-4.27c.57-.12,1.35-.68,1.18-1.36s-1.16-.7-1.71-.59Z"/><path d="M1581.12,664.33l.09-.09.8-.49c1.28,0,1.7,0,1.25-.18,0,0,0,0,0-.08-.87.65-1.56.34-.71.47s1.49.26,2.24.37c1.45.2,2.91.35,4.37.44a60.5,60.5,0,0,0,8.93-.09,2.67,2.67,0,0,0,1.92-.74c.36-.51-.3-.68-.73-.64a56.62,56.62,0,0,1-14.42-.62,5.75,5.75,0,0,0-3,.12c-.54.19-1.8.77-1.5,1.56.48,1.24,4.06.43,3.67-.81-.27-.82-3.15,0-2.9.78Z"/><path d="M1589.51,642c-3.76-1.87-8.26.47-10.3,3.78a7.22,7.22,0,0,0,2.29,9.79,10.77,10.77,0,0,0,11.18.63c3.58-2,6.32-6.63,4.7-10.75a7.79,7.79,0,0,0-11.27-3.51.91.91,0,0,0-.15,1.5,1.91,1.91,0,0,0,2.08-.17c2.17-1.38,5.31.61,6.31,2.65,1.4,2.83,0,6.39-2.41,8.18-4.3,3.24-12.49-.7-10.65-6.5.86-2.71,3.77-5,6.55-3.63,1.2.6,3.32-1.14,1.67-2Z"/><path d="M1560.4,680a111.3,111.3,0,0,0-20.5,5c-3.31,1.15-6.58,2.45-9.77,3.91-2.87,1.32-5.93,2.65-8.32,4.76a9.19,9.19,0,0,0-3.45,7.28c.08,1.21.35,2.7,1.6,3.12a15.44,15.44,0,0,1,3.71,1.59c2.25,1.48,3,4.12.43,5.77a20.86,20.86,0,0,1-3.93,1.73l-5.36,2.06-24,9.25c-.56.21-1.08.91-.69,1.48s1.4.43,2,.21l21-8.08c3.48-1.33,7-2.59,10.43-4,2.21-.92,4.7-2.38,5.18-4.93s-1.37-4.36-3.33-5.48c-1-.59-2.17-.87-3.23-1.38-.26-.13-.34-.12-.49-.31a2.88,2.88,0,0,1-.29-1.06,5.76,5.76,0,0,1,.15-2.3c.83-3.23,3.87-5,6.65-6.42,3-1.51,6.09-2.87,9.22-4.08a106.16,106.16,0,0,1,22.79-6c.61-.09,1.54-.42,1.6-1.17s-.75-1-1.34-.94Z"/><path d="M1517.49,735a116.21,116.21,0,0,1,38.17-16.09c3.51-.79,7.42-1.69,9.58-4.83a.21.21,0,0,0-.07-.27l-2.4-3-.51.75a4.06,4.06,0,0,1,3.22-.3,3.12,3.12,0,0,0,2-.35c.26-.14,1-.66.34-.83a10,10,0,0,0-7.29,1c-.26.14-.79.42-.51.75.5.62,2.38,2.28,2,3.09a4.77,4.77,0,0,1-2.32,1.71,33.62,33.62,0,0,1-5.87,1.56,122.2,122.2,0,0,0-13.52,4.06,123.46,123.46,0,0,0-25.11,12.53c-.51.34-.3.62.19.72a3.25,3.25,0,0,0,2-.55Z"/><path d="M1889,801.78c1.79-7.71,3.78-16.17,9.75-21.81.61-.58,1.37-1.48,2.16-.73a4.08,4.08,0,0,1,.94,2.15,39,39,0,0,1,.3,6.49l.37,15.25c0,1.41,3,.89,2.92-.27l-.34-14c-.06-2.23,0-4.47-.17-6.7a7.05,7.05,0,0,0-1.18-3.92c-2.56-3.25-6.68.14-8.61,2.27a30.71,30.71,0,0,0-5.55,9.34,87.87,87.87,0,0,0-3.51,12.22c-.3,1.29,2.65.9,2.92-.27Z"/><path d="M1904.85,788.08a18.09,18.09,0,0,1,5.52-6.6c.94-.65,2.17-1.27,3-.2s1.15,3,1.5,4.31a53.52,53.52,0,0,1,1.55,19.15c-.15,1.52,2.81,1.15,2.94-.2a56.76,56.76,0,0,0-.09-11.8,42.4,42.4,0,0,0-2.68-11.68c-1.43-3.34-5.09-2.95-7.72-1.26a20.41,20.41,0,0,0-6.83,7.91c-.75,1.48,2.18,1.56,2.79.37Z"/><path d="M1918.35,788.86l2.52-3.4a32.66,32.66,0,0,1,2.32-3.05c.59-.63,1-.72,1.71-.17a6.18,6.18,0,0,1,1.71,2.5,37,37,0,0,1,1.91,7.55,54.62,54.62,0,0,1,.78,8.37c0,1.57,3,1.18,3-.19a58.24,58.24,0,0,0-1-9.86c-.55-2.87-1.1-6.17-2.78-8.63-1.49-2.18-4.14-3.13-6.49-1.6a12.5,12.5,0,0,0-2.87,3.23l-3.21,4.32c-1.11,1.49,1.61,2.05,2.45.93Z"/><path d="M1842.84,758.23l-.41,10.4c0,1.44-.18,2.9-.14,4.34a3.34,3.34,0,0,0,1.23,2.87,5.44,5.44,0,0,0,3.6.45l5.08-.47c3.1-.29,6.24-.44,9.31-.92a14.44,14.44,0,0,0,6.82-2.58,9.41,9.41,0,0,0,3.26-6.68c.35-3.21.4-6.51.51-9.75.08-2.4-.65-4.16-3.32-4.29a48,48,0,0,0-5.35.29l-5.37.35-11.71.76c-.5,0-1.57.38-1.65,1s.83.64,1.25.62l16.84-1.09c1.3-.09,2.61-.19,3.91-.26s2.24.24,2.46,1.68a19,19,0,0,1-.07,3.77l-.21,4.4c-.11,2.28-.13,4.83-1.26,6.88a6.84,6.84,0,0,1-5,3.2,67.85,67.85,0,0,1-7.13.77c-2.73.26-5.48.63-8.22.77-1.67.08-2.07-1-2.09-2.52s.1-3,.16-4.43l.39-9.9c0-1.18-2.86-.6-2.9.36Z"/><path d="M1851.38,775.63l-.94,15c-.15,2.41-1.63,10,3.19,8.65.51-.15,1.38-.61,1.2-1.29s-1.19-.65-1.69-.51c.53.17.66.14.39-.08a1.54,1.54,0,0,1-.26-.47,3.89,3.89,0,0,1-.21-.83,14.9,14.9,0,0,1,.12-2.83l.36-5.82.76-12.1c.09-1.39-2.85-.92-2.92.27Z"/><path d="M1825.46,767.38a5.94,5.94,0,0,0-6,5.52c-.11,3.24,2.79,5.1,5.79,5,3.45-.09,6.87-2.07,7.65-5.62a8.15,8.15,0,0,0-4-8.78,6.22,6.22,0,0,0-6.4.4c-1.36,1-2.43,2.89-1.52,4.51.54.94,3.32,0,2.9-.78a2.41,2.41,0,0,1,.46-2.92,1.72,1.72,0,0,1,.46-.34c-.2.11.28,0,0,0s.2,0,.09,0a3.66,3.66,0,0,1,1.79.53,7.32,7.32,0,0,1,3.46,6.68,5.94,5.94,0,0,1-1.28,3.47,3.54,3.54,0,0,1-1,.83,5.74,5.74,0,0,1-.6.27c.3-.11-.68.14-.37.09a3.71,3.71,0,0,1-1.2,0,4.28,4.28,0,0,1-1.55-.54,3.61,3.61,0,0,1-1.7-2.41,4.5,4.5,0,0,1,.53-3.13,3.46,3.46,0,0,1,.94-1.1c.19-.14-.22.19.09-.06.15-.08.15-.08,0,0l.23-.1c-.42.18.28-.05-.16,0l.25,0c-.15,0-.14,0,0,0a2.4,2.4,0,0,0,1.92-.78c.36-.56-.31-.81-.78-.81Z"/><path d="M1827.14,779.1a29.09,29.09,0,0,0,16.63-3.2c.55-.29,1.08-.92.67-1.54a1.64,1.64,0,0,0-2-.25,25.05,25.05,0,0,1-14.34,2.81,1.85,1.85,0,0,0-1.88.9,1,1,0,0,0,.9,1.28Z"/><path d="M1824.41,777.72v15.67c0,.59,2.9.14,2.9-.78V776.94c0-.59-2.9-.14-2.9.78Z"/><path d="M1822.49,793.41a22,22,0,0,1-.07,10.88c-.12.45.94.24,1.14.2a5.26,5.26,0,0,0,1.11-.33c.16-.08.55-.22.6-.41a22.51,22.51,0,0,0,.12-11.12c-.14-.54-3,.19-2.9.78Z"/><path d="M1824.61,793.52a57.74,57.74,0,0,0,10.82,10.82c.82.64,3.47-.57,2.28-1.48a56.42,56.42,0,0,1-10.42-10.52c-.65-.86-3.45.17-2.68,1.18Z"/><path d="M1823.14,779.38a23.57,23.57,0,0,0,18.26,7.41c.61,0,1.52-.45,1.6-1.14s-.78-.92-1.32-.9a20.81,20.81,0,0,1-15.88-6.62c-.86-.93-3.62.23-2.66,1.25Z"/><path d="M1850.88,767.09c1-4,6.06-4.46,9.34-5.31,3.66-.95,8.19-2.88,8.89-7.07.22-1.32-2.73-.89-2.92.28-.67,4-5.53,4.8-8.79,5.58-3.8.9-8.37,2.6-9.44,6.8-.32,1.25,2.62.87,2.92-.28Z"/><path d="M1855.6,769.91c.26-.08.51-.15.77-.21-.21,0,.12,0,.15,0l.4-.06a7.83,7.83,0,0,1,1.38,0,8.86,8.86,0,0,1,2.79.73,9.59,9.59,0,0,1,1.33.74,2.45,2.45,0,0,0,2.24.08,2.8,2.8,0,0,0,2.15-2.55c0-.22-.42-.34-.55-.37a2.46,2.46,0,0,0-1.08.08c-.52.15-1.27.44-1.27,1.07a1.05,1.05,0,0,1-.18.54s-.15.23-.13.14.37-.2.5-.21l1.14.2a11.52,11.52,0,0,0-10-1.52c-.41.13-1.41.47-1.27,1.07s1.28.4,1.63.3Z"/><path d="M602.48,549.45a5.61,5.61,0,0,1,4-5.22c2.85-1,6.17-.26,9.11-.21a30.88,30.88,0,0,0,15.39-4.2,82.46,82.46,0,0,0,13.14-9.64c2-1.74,4.26-4.22,7-4.77a19.17,19.17,0,0,1,4.35-.07,21.16,21.16,0,0,0,4.28-.29,20.91,20.91,0,0,0,13.86-9c.39-.58-.33-.87-.8-.91a2.29,2.29,0,0,0-1.91.81,16.67,16.67,0,0,1-13,7.64c-2.92.12-5.74-.4-8.56.68-2.58,1-4.64,2.91-6.71,4.68-4.28,3.64-8.62,7.31-13.57,10a28.47,28.47,0,0,1-7.39,2.84,32.12,32.12,0,0,1-8.65.29c-3.17-.16-6.4,0-9.23,1.59-2.24,1.26-4.18,3.4-4.16,6.09,0,1.26,2.91.67,2.9-.34Z"/><path d="M632,513.91c.21-1.4,1.51-1.65,2.68-1.33,1.94.54,2.87,2.86,3.37,4.59.62,2.19.8,4.48,1.65,6.61a8.67,8.67,0,0,0,1.71,2.82,2.67,2.67,0,0,0,1.78.84l2.44.38a1.89,1.89,0,0,0,1.89-.89c.3-.67-.27-1.11-.88-1.21l-3.06-.47.62.21c-1.75-1.62-2.21-4.2-2.65-6.42s-1-4.76-2.54-6.58a6,6,0,0,0-5.67-2c-2,.33-4,1.55-4.27,3.68-.22,1.46,2.74,1.08,2.93-.22Z"/><path d="M629.13,506.73a256.54,256.54,0,0,0-.4,30.12c0,.79,2.94.24,2.9-.77a252.55,252.55,0,0,1,.39-29.76c.07-1-2.83-.45-2.89.41Z"/><path d="M628.39,480.72l.93,29.76c0,1.52,3,1.08,2.94-.22l-.93-29.76c-.05-1.52-3-1.08-2.94.22Z"/><path d="M630.73,483.62l10.75,14.66c.44.61,3.23-.33,2.71-1l-10.74-14.66c-.45-.61-3.24.33-2.72,1Z"/><path d="M629.85,460.47l-3.19,0c-.48,0-2.24.2-2.37.85-.54,2.76-1.5,5.42-2.15,8.16-.57,2.39-1,5-.17,7.39,1.53,4.52,6.28,5.59,10.49,4.6,4.48-1.06,7.92-4.15,8.42-8.86a14.22,14.22,0,0,0-6.4-12.92,9.3,9.3,0,0,0-8.58-.82c-2.43,1-4.69,3.28-4,6.1.14.61,3-.1,2.9-.77-.4-1.77.64-4.36,2.58-4.85a5.25,5.25,0,0,1,3,.56,11.31,11.31,0,0,1,3,2,14,14,0,0,1,4.7,11.09c-.23,3.29-2.21,6.82-5.64,7.59a6.63,6.63,0,0,1-7.71-5.14,15,15,0,0,1,.48-7.07c.64-2.52,1.5-5,2-7.54l-2.37.84,3.19,0a3.7,3.7,0,0,0,2-.55c.42-.29.43-.61-.17-.62Z"/><path d="M624.23,483.21,622,491.13a62.7,62.7,0,0,0-2,7.82c-.59,4,.48,8.77,4.69,10.3a2.44,2.44,0,0,0,2.05-.27c.33-.21.93-.88.26-1.13-4.34-1.58-4.67-6.77-3.86-10.62,1-4.84,2.66-9.62,4-14.38.29-1-2.62-.62-2.9.36Z"/><path d="M626.85,478.21a13.58,13.58,0,0,0-11.67,3.11A18.86,18.86,0,0,0,608.87,493a50.3,50.3,0,0,0,.22,15c.49,3.45,2.07,7.34,6.08,7.52a9.08,9.08,0,0,0,5.56-2.08c1.51-1.08,3.08-2.69,5-2.82,1.61-.11,2.26-2.18.28-2.05-3.31.22-5.43,2.6-8.1,4.22-3.12,1.88-5-1.16-5.65-3.94a34.68,34.68,0,0,1-.66-5.38,56.48,56.48,0,0,1-.21-6.76c.14-4.13,1-8.49,3.51-11.85,2.37-3.1,6.18-5.66,10.23-4.77a2.09,2.09,0,0,0,2.05-.55.79.79,0,0,0-.36-1.35Z"/><path d="M609.75,487.22a18.84,18.84,0,0,0,12.45,2.32c.49-.08,1.54-.34,1.66-.94s-.88-.6-1.23-.55a16,16,0,0,1-10.56-2.17c-.75-.44-3.43.68-2.32,1.34Z"/><path d="M670.75,515.62c-5,5.71-6.17,13.48-6.73,20.79-.7,9.3-1.18,18.62-1.76,27.92l-1,16.19c-.08,1.2,2.84.64,2.9-.36q.89-14.05,1.76-28.13.44-6.9.86-13.79A75.18,75.18,0,0,1,668.14,527a24.83,24.83,0,0,1,5.31-11.25c.47-.54-.4-.86-.79-.88a2.37,2.37,0,0,0-1.91.8Z"/><ellipse class="cls-12" cx="318.98" cy="112.05" rx="10.34" ry="10.44" transform="translate(104.25 373.19) rotate(-69.92)"/><path d="M1589.85,648.75c.61,0,1.62-.19,1.91-.82s-.23-.95-.81-.95-1.62.19-1.91.82.23,1,.81,1Z"/><path d="M1585.8,653a8.52,8.52,0,0,0,8.25,2.24c.54-.14,1.38-.65,1.2-1.33s-1.18-.67-1.7-.54a2.59,2.59,0,0,0-.4.09c.08,0,.3-.05.1,0l-.25,0-.4,0h-.14c-.28,0-.57,0-.85-.08,0,0-.17,0-.2,0s.22.05,0,0l-.44-.11a7.77,7.77,0,0,1-.76-.28l-.09,0-.09,0-.39-.22a5.29,5.29,0,0,1-.67-.46l-.2-.16-.08-.07-.09-.08-.17-.18a1.73,1.73,0,0,0-2-.18c-.42.22-1.21.89-.7,1.42Z"/><path d="M1828.48,771.76c1.62,0,2.26-2,.29-2-1.62,0-2.26,2-.29,2Z"/><path d="M1825.06,773.66a2.86,2.86,0,0,0,1.1,1.86,3.71,3.71,0,0,0,2.72.75,2.5,2.5,0,0,0,1.09-.38c.2-.14.51-.41.53-.69.06-.68-.78-.81-1.29-.76h.19a2.06,2.06,0,0,1-.35,0l.33.05a2.73,2.73,0,0,1-.51-.14l.27.11a2.88,2.88,0,0,1-.61-.36l.2.16a2.56,2.56,0,0,1-.63-.76l.11.21a2.07,2.07,0,0,1-.25-.81c0-.25-.39-.42-.58-.48a2.12,2.12,0,0,0-1.09,0,2.05,2.05,0,0,0-1,.52l-.18.23a.63.63,0,0,0-.09.48Z"/><path d="M1894.16,768.85a8.71,8.71,0,0,0,3.36,7.17c2.62,2,6.66,2.66,9.12,0a8.73,8.73,0,0,0,1.95-8.49,7,7,0,0,0-6.54-4.58c-3.32,0-7,2.44-6.93,6,0,.81,2.91.28,2.89-.78a4,4,0,0,1,1.12-2.77,3.71,3.71,0,0,1,.95-.73,1.58,1.58,0,0,1,.91-.22c2.06,0,3.93,1.83,4.64,3.64a7.7,7.7,0,0,1-.87,6.84,4.59,4.59,0,0,1-1.06,1.26c-.1.08.17,0,0,0a5.6,5.6,0,0,1-1-.14,6.92,6.92,0,0,1-2.64-1.39,8,8,0,0,1-3-6.29c0-.62-.78-.61-1.23-.55s-1.64.36-1.66.94Z"/><path d="M1907.31,774.5a8.93,8.93,0,0,0,6.26,5,6.19,6.19,0,0,0,4.54-1.13,5.2,5.2,0,0,0,1.75-2.65,12,12,0,0,0,.43-3.33,11.43,11.43,0,0,0-.42-3.39,3.92,3.92,0,0,0-2-2.49,5.47,5.47,0,0,0-4.47.34,10.28,10.28,0,0,0-3.66,3.15c-1,1.23-2,2.77-1.54,4.41.25.83,3.14,0,2.9-.78a3.69,3.69,0,0,1,.9-3.16,11.24,11.24,0,0,1,2.1-2.36,3.5,3.5,0,0,1,.55-.4c.07,0,.35-.16.24-.13s0,0,.09,0a2,2,0,0,1,.62.22,3.23,3.23,0,0,1,1.39,2,11.6,11.6,0,0,1,.26,5.27,6.41,6.41,0,0,1-.78,2.34,2.93,2.93,0,0,1-.61.7s-.27.16-.1.08c-.25.13-.09,0,0,0,.28-.11,0,0-.13,0a6.08,6.08,0,0,1-3.15-1.59,8.83,8.83,0,0,1-2.23-2.88c-.42-.85-3.22.11-2.9.78Z"/><path d="M1921.71,771.07c-1.83,2.66-.56,6,1.52,8.08,2.35,2.4,5.78,3.7,9,2.18,3-1.4,3.82-4.93,3.17-7.92a7.23,7.23,0,0,0-5.47-5.72c-2.92-.58-6.58.83-7.65,3.76-.58,1.59,2.32,1.61,2.78.36a2.78,2.78,0,0,1,.59-1,2.9,2.9,0,0,1,.72-.58l.38-.19s.27-.1,0,0a5.76,5.76,0,0,1,.68-.19c.3-.07.09,0,0,0l.35,0,.36,0c-.25,0,.18,0,.19,0a3.61,3.61,0,0,1,1.62.54,5.35,5.35,0,0,1,2.25,3c.62,1.78.78,4.64-.77,6a2.67,2.67,0,0,1-2.39.52,6.2,6.2,0,0,1-2.88-1.58,7.82,7.82,0,0,1-2.11-2.95,3.63,3.63,0,0,1,.05-3.26c1-1.52-1.66-2-2.43-.89Z"/><path d="M1926.65,773.81a3.84,3.84,0,0,0,2-.54c.39-.29.48-.54-.14-.54a3.76,3.76,0,0,0-2,.55c-.39.28-.47.53.14.53Z"/><path d="M1913,771.81l-.06.05.27-.17,0,0,.33-.15,0,0,.38-.12h0l.39-.08h0l.36,0h0l.31,0h0l.25,0-.09,0,.18.1a.66.66,0,0,1-.22-.22l.09.14a1.43,1.43,0,0,1-.21-.81v.16a1.7,1.7,0,0,1,0-.22.19.19,0,0,0,0-.23.31.31,0,0,0-.23-.17,1,1,0,0,0-.42-.06,1.52,1.52,0,0,0-.52,0,3.22,3.22,0,0,0-1.1.35l-.27.17a.78.78,0,0,0-.3.35.52.52,0,0,0,0,.21,2.29,2.29,0,0,0,0,.37,1.23,1.23,0,0,0,.1.42.76.76,0,0,0,.09.18,2.43,2.43,0,0,0,.2.28.45.45,0,0,0,.13.1,1.5,1.5,0,0,0,.56.2h.35a2.45,2.45,0,0,0,.39,0h0l.42-.09.42-.14.34-.16h0a1.89,1.89,0,0,0,.3-.19l0,0a.72.72,0,0,0,.25-.27.31.31,0,0,0,.07-.25.3.3,0,0,0-.19-.19.69.69,0,0,0-.35-.11,3,3,0,0,0-1.07.11l-.38.12a2.89,2.89,0,0,0-.6.32Z"/><path d="M1898.5,767.78l.43,1.25a.4.4,0,0,0,.21.28.62.62,0,0,0,.37.18,1.24,1.24,0,0,0,.51,0,1.61,1.61,0,0,0,.57-.08l.38-.13a1.88,1.88,0,0,0,.58-.38.73.73,0,0,0,.28-.68l-.43-1.26a.45.45,0,0,0-.21-.28.7.7,0,0,0-.37-.17,1.48,1.48,0,0,0-.51,0,2.25,2.25,0,0,0-.58.08l-.37.14a1.9,1.9,0,0,0-.59.37c-.16.18-.36.43-.27.69Z"/><path d="M1895.71,773.11l4.58,1a2.47,2.47,0,0,0,1.08-.06,2.35,2.35,0,0,0,1-.49c.15-.15.37-.39.28-.64a.7.7,0,0,0-.56-.4l-4.58-1a2.32,2.32,0,0,0-1.08.06,2.23,2.23,0,0,0-1,.49c-.15.15-.37.39-.28.63a.69.69,0,0,0,.56.41Z"/><path d="M1907.89,775.9c1.81,2,5.16,2,7.27.48a1.17,1.17,0,0,0,.53-.68.6.6,0,0,0-.32-.61,2.16,2.16,0,0,0-2.07.22l-.25.17c-.15.09.32-.16.11-.06l-.12.06c-.14.06-.51.14,0,0l-.29.08c-.12,0-.32,0,.16,0l-.13,0-.31,0a1,1,0,1,0,.13,0h-.13l-.34,0-.14,0a1,1,0,1,0,.1,0l-.3-.07-.29-.1c-.13,0,.27.12.06,0l-.13-.06a3.48,3.48,0,0,1-.55-.33s-.15-.11,0,0,0,0,0,0l-.24-.24a1.79,1.79,0,0,0-1.94-.12c-.4.2-1.21.79-.73,1.31Z"/><path d="M1926.05,778.34l0,0h0l-.15,0-.15,0h.08l-.35,0,.18,0-.32,0a1.11,1.11,0,0,1,.26,0l-.25,0a2.07,2.07,0,0,1,.43.1l-.18-.07a1.75,1.75,0,0,1,.57.35.84.84,0,0,0,.3.08,1.62,1.62,0,0,0,.44,0,4.42,4.42,0,0,0,1.13-.26l.33-.13a2.15,2.15,0,0,0,.48-.3l.12-.14a.16.16,0,0,0-.06-.23,2.11,2.11,0,0,0-1-.48,3.59,3.59,0,0,0-1-.05,4.7,4.7,0,0,0-1.18.2,3.91,3.91,0,0,0-1,.41.67.67,0,0,0-.26.21.2.2,0,0,0-.08.2l.08.11a1,1,0,0,0,.42.09,3.77,3.77,0,0,0,1.06-.15Z"/><path d="M1928.12,773.33l-.42-1.25a.68.68,0,0,0-.23-.38.93.93,0,0,0-.39-.26,1.39,1.39,0,0,0-.53-.1,1.42,1.42,0,0,0-.58.06l-.38.14a1.64,1.64,0,0,0-.56.45,1,1,0,0,0-.23.86l.42,1.26a.73.73,0,0,0,.24.38.82.82,0,0,0,.39.26,1.19,1.19,0,0,0,.53.09,1.44,1.44,0,0,0,.58-.06l.37-.14a1.75,1.75,0,0,0,.57-.44,1,1,0,0,0,.22-.87Z"/><path d="M1590.57,648.53l1.64-1.3a1.25,1.25,0,0,0,.53-.71.66.66,0,0,0-.33-.64,1.59,1.59,0,0,0-1-.18l-.39.07a2.33,2.33,0,0,0-.7.32l-1.64,1.3a1.23,1.23,0,0,0-.52.71.63.63,0,0,0,.32.64,1.59,1.59,0,0,0,1,.18l.39-.07a2.47,2.47,0,0,0,.7-.32Z"/><path d="M953.21,670.72l-.43,2.52c-.1.61.84.63,1.24.57a2.87,2.87,0,0,0,1.1-.37c.2-.13.51-.32.55-.59l.43-2.51c.1-.62-.84-.64-1.24-.58a3,3,0,0,0-1.1.37c-.21.13-.51.33-.55.59Z"/><path d="M947.9,672.22a5.15,5.15,0,0,0,.72,6c.44.47,1.4.29,1.92,0,.35-.16,1.23-.71.76-1.2a4.51,4.51,0,0,1-.44-.54l-.09-.12a1.17,1.17,0,0,0-.06-.11l0-.08-.09-.17a4.72,4.72,0,0,1-.38-1.33c0-.1,0-.21,0-.31a1.21,1.21,0,0,0,0-.19v0q0-.35.06-.69a5.06,5.06,0,0,1,.17-.67l.12-.33c0,.08,0,.09,0,0a2.12,2.12,0,0,1,.11-.21c.32-.57-.28-.88-.8-.89a2.64,2.64,0,0,0-1.14.22,1.65,1.65,0,0,0-.77.58Z"/><path d="M629.82,467.26a5.27,5.27,0,0,0,3.2,1.05,4.37,4.37,0,0,0,3.52-1.65,2.19,2.19,0,0,0,.39-1.18,1.11,1.11,0,0,0-.54-1.05,2.76,2.76,0,0,0-.77-.14,5.41,5.41,0,0,0-.9,0,7.51,7.51,0,0,0-2.09.45,5.2,5.2,0,0,0-2.72,2c-.11.17-.2.33,0,.49a1.15,1.15,0,0,0,.76.18,3.42,3.42,0,0,0,1.14-.24,1.67,1.67,0,0,0,.79-.51,3.77,3.77,0,0,1,.31-.42l.15-.17s.17-.15,0,0,0,0,0,0l.21-.16c.05,0,.3-.2.1-.08s.07,0,.12-.06l.1-.05c.2-.1-.29.13-.14.07l.22-.09-.19.06.11,0,.14,0c.17-.05-.39.07-.22,0s.23,0,.26,0l-.19,0h.15c.06,0,.33,0,.1,0s.07,0,.13,0,.4.08.08,0l-.18-.11.06.08-.1-.14a1.29,1.29,0,0,1,.2.77v-.17a2,2,0,0,1-.24.74l.11-.18a3.06,3.06,0,0,1-.21.29l-.14.15c.19-.22.11-.1,0-.05-.24.18.23-.12,0,0s.1-.05.15-.06l-.09,0c.3-.1.37-.12.21-.08l.19,0h0c.28,0,0,0-.09,0,.2,0,.24,0,.11,0h-.1a.59.59,0,0,1-.23,0c.15,0,.16,0,.06,0l-.1,0a4.83,4.83,0,0,1-.93-.4l.18.1c-.18-.11-.36-.22-.53-.34a1.27,1.27,0,0,0-.76-.17,3,3,0,0,0-1.14.24,1.78,1.78,0,0,0-.79.5c-.1.14-.21.37,0,.5Z"/><path d="M629.92,475.81a4.88,4.88,0,0,0,4.3,3,6.11,6.11,0,0,0,5.5-2.77c.34-.59-.3-1-.82-1a2.2,2.2,0,0,0-1.9.83,4,4,0,0,1-.29.43c.07-.09,0,0,0,0l-.18.18-.19.18c.08-.08.12-.09,0,0a1.64,1.64,0,0,1-.22.14s-.24.13-.06.05-.08,0-.12.05-.33.12-.1,0l-.06,0s-.21.08-.25.06.33-.05,0,0c0,0-.27,0-.08,0s-.07,0-.12,0l-.26,0c-.18,0,.2.05,0,0l-.25,0-.19-.06c-.3-.1.1,0-.06,0a4,4,0,0,1-.83-.49l0,0-.19-.17a3.17,3.17,0,0,1-.3-.34,2.71,2.71,0,0,1-.45-.75c-.25-.61-1.14-.58-1.67-.43s-1.48.59-1.23,1.2Z"/></svg>